SplineFontDB: 3.2
FontName: ZamIco
FullName: ZamIco
FamilyName: ZamIco
Weight: Regular
Copyright: Zamkorus ONLY FOR USE ON ZAMKORUS.PL WEBSITE ALL LOGOS & ICONS ARE RIGHTS ARE OWN BY COPYRIGHT OWNERS:\n\nSCHOOL ICON:\n    COLLECTION: Font Awesome Solid Icons\n    LICENSE: CC Attribution License\n    AUTHOR: FortAwesome\n\nPHONE ICON:\n    COLLECTION: Solar Bold Icons\n    LICENSE: CC Attribution License\n    AUTHOR: Solar Icons\n\nTUDELFT LOGO:\n    Delft university of technology\n    tudelft.nl\n\nZAMKORUS LOGO & LETTER ICON:\n    Krzysztof Zablocki (Zamkorus)\n    zamkorus.pl\n\nUNI TXT ICON:\n    Krzysztof Zablocki (Zamkorus)\n    zamkorus.pl\n\nLANGUAGE SVG ICON:\n    COLLECTION: Ficons Interface Icons\n    LICENSE: PD License\n    AUTHOR: fiction\n\nBUISSEN CARD ICON:\n    COLLECTION: Typicons Filled Icons\n    LICENSE: PD License\n    AUTHOR: stephenhutchings\n\nWBS LOGO:\n    (c) WBS TRAINING \n    www.wbstraining.de\n\nPGE ICON:\n    (c) Polska Grupa Energetyczna\n    https://www.gkpge.pl\n\nLINK-EXTERNAL-SMALL ICON:\n    SOURCE: https://en.m.wikipedia.org/wiki/File:Link-external-small-ltr-progressive.svg\n    AUTHOR: https://design.wikimedia.org/style-guide/visual-style_icons.html\n    LICENSE: CC BY 4.0\n    REEDITED: Krzysztof Zablocki (Zamkorus)\n\n
FontLog: "fixed windows lineheight"
Version: 2.6
ItalicAngle: 0
UnderlinePosition: -100
UnderlineWidth: 50
Ascent: 800
Descent: 200
InvalidEm: 0
LayerCount: 2
Layer: 0 0 "Back" 1
Layer: 1 0 "Fore" 0
XUID: [1021 107 -1169835146 8420243]
StyleMap: 0x0040
FSType: 0
OS2Version: 4
OS2_WeightWidthSlopeOnly: 0
OS2_UseTypoMetrics: 1
CreationTime: 1729206079
ModificationTime: 1761409815
PfmFamily: 17
TTFWeight: 400
TTFWidth: 5
LineGap: 90
VLineGap: 0
Panose: 2 0 5 9 0 0 0 0 0 0
OS2TypoAscent: 800
OS2TypoAOffset: 0
OS2TypoDescent: -200
OS2TypoDOffset: 0
OS2TypoLinegap: 90
OS2WinAscent: 800
OS2WinAOffset: 0
OS2WinDescent: 200
OS2WinDOffset: 0
HheadAscent: 800
HheadAOffset: 0
HheadDescent: -200
HheadDOffset: 0

StartChar: .notdef
Encoding: 0 -1 0
Width: 3119
GlyphClass: 1
Flags: W
LayerCount: 2
Fore
SplineSet
298 0 m 1
 33 0 l 1
 33 666 l 1
 298 666 l 1
 298 0 l 1
66 633 m 1
 66 33 l 1
 265 33 l 1
 265 633 l 1
 66 633 l 1
EndSplineSet
Validated: 1
EndChar

StartChar: uniF100
Encoding: 4 61696 4
Width: 621
VWidth: 1200
Flags: W
HStem: 122 356<91.4465 261.848>
VStem: 0 355<214.447 385.553> 535 86<94.9021 504.604>
LayerCount: 2
Fore
SplineSet
461 800 m 0
 476 800 488 793 497 779 c 0
 540 707 571 629 591 546 c 0
 611 464 621 382 621 300 c 0
 621 218 611 136 591 54 c 0
 571 -29 540 -107 497 -179 c 0
 488 -193 476 -200 461 -200 c 0
 447 -200 437 -195 430 -186 c 0
 423 -177 420 -166 420 -154 c 0
 420 -149 421 -144 423 -139 c 0
 425 -135 428 -130 431 -125 c 0
 468 -60 494 8 510 80 c 0
 527 152 535 226 535 300 c 0
 535 374 527 447 510 519 c 0
 494 591 468 660 431 725 c 0
 428 730 425 735 423 739 c 0
 421 744 420 749 420 754 c 0
 420 766 423 777 430 786 c 0
 437 795 447 800 461 800 c 0
177 478 m 0
 226 478 267 461 302 426 c 0
 337 391 355 349 355 300 c 0
 355 251 337 209 302 174 c 0
 267 139 226 122 177 122 c 0
 128 122 86 139 51 174 c 0
 16 209 0 251 0 300 c 0
 0 349 16 391 51 426 c 0
 86 461 128 478 177 478 c 0
EndSplineSet
Validated: 1
EndChar

StartChar: uniF101
Encoding: 5 61697 5
Width: 934
Flags: W
HStem: 0 67<391.146 571.076> 67 67<68.8064 131.871 201 307.094> 334 67<712 846.388> 467 67<201 256.147> 534 67<606 846.288> 734 66<446.547 529.494>
VStem: 0 67<136.081 190.671> 134 67<135.941 190.671> 551 66<601.629 714.821> 596 67<92.5 182.531> 628 66<192.598 284.484> 646 66<290.72 334> 867 67<419.456 513.383>
LayerCount: 2
Fore
SplineSet
467 800 m 1x3748
 510 800 546 788 574 765 c 0
 602 742 617 710 617 667 c 0
 617 644 613 622 606 601 c 1
 800 601 l 2
 836 601 868 587 894 561 c 0
 920 534 934 503 934 468 c 0
 934 432 920 399 894 373 c 0
 868 346 836 334 800 334 c 2
 712 334 l 1x2f98
 711 313 704 291 693 272 c 0
 693 271 694 271 694 270 c 0
 694 263 694 257 694 250 c 0x2f28
 694 214 684 183 663 157 c 1
 663 109 649 71 619 43 c 0
 589 15 550 0 501 0 c 0xaf48
 455 0 399 12 333 36 c 0
 276 57 237 67 217 67 c 2
 67 67 l 2
 48 67 33 74 20 87 c 0
 7 100 0 115 0 134 c 2
 0 467 l 2x7748
 0 486 7 501 20 514 c 0
 33 527 48 534 67 534 c 2x2f48
 217 534 l 2
 220 534 224 535 228 536 c 0
 232 538 237 540 241 543 c 0
 245 546 248 549 252 552 c 0
 256 555 260 559 265 564 c 0
 269 569 273 573 276 576 c 0
 278 578 281 581 285 586 c 0
 289 591 292 595 293 596 c 0
 315 621 333 644 345 663 c 0
 349 670 355 681 362 695 c 0
 369 709 375 722 381 732 c 0
 387 743 394 754 402 765 c 0
 410 777 420 785 431 791 c 0
 442 797 454 800 467 800 c 1x3748
467 734 m 2
 458 734 443 710 420 661 c 0
 415 653 412 645 408 639 c 0
 405 634 403 630 401 627 c 0
 387 605 368 580 343 552 c 0
 318 523 300 505 290 497 c 0
 266 477 242 467 217 467 c 2
 201 467 l 1
 201 134 l 1
 217 134 l 2x77a8
 242 134 271 129 304 117 c 0
 337 106 370 95 405 84 c 0
 439 73 470 67 498 67 c 0
 563 67 596 96 596 154 c 0xa748
 596 163 595 173 594 183 c 1
 604 189 613 198 619 210 c 0
 625 223 628 236 628 249 c 0xa728
 628 262 625 274 619 285 c 1
 637 302 646 323 646 347 c 0xa718
 646 355 644 365 641 375 c 0
 638 386 633 395 628 401 c 1
 800 401 l 2
 818 401 834 407 847 420 c 0
 860 434 867 450 867 467 c 0xb728
 867 485 860 500 846 513 c 0
 833 527 817 534 800 534 c 2
 500 534 l 1
 500 541 503 549 508 559 c 0
 513 569 518 578 525 587 c 0
 531 597 538 609 543 623 c 0
 548 637 551 652 551 667 c 0
 551 690 543 707 527 717 c 0
 511 728 492 734 467 734 c 2
101 200 m 0
 92 200 83 197 77 191 c 0
 70 184 67 176 67 167 c 0
 67 158 70 150 77 144 c 0
 83 137 92 134 101 134 c 0
 110 134 117 137 124 144 c 0
 130 150 134 158 134 167 c 0
 134 176 130 184 124 191 c 0
 117 197 110 200 101 200 c 0
EndSplineSet
Validated: 1
EndChar

StartChar: uniF102
Encoding: 6 61698 6
Width: 1050
Flags: W
HStem: 0 21G<43 63.5>
LayerCount: 2
Fore
SplineSet
62 800 m 0
 69 800 76 799 83 796 c 2
 1010 454 l 2
 1035 445 1049 423 1050 400 c 0
 1049 377 1035 355 1010 346 c 2
 83 4 l 2
 75 1 67 0 60 0 c 0
 26 0 0 29 0 61 c 0
 0 73 4 86 13 98 c 0
 79 188 113 294 113 400 c 0
 113 506 79 612 13 702 c 0
 4 714 0 727 0 739 c 0
 0 771 26 800 60 800 c 0
 61 800 61 800 62 800 c 0
EndSplineSet
Validated: 1
EndChar

StartChar: uF6966
Encoding: 7 1010022 7
Width: 2739
Flags: W
HStem: 125 33<2606.99 2700.55> 196 31<1529 1634> 243 31<2645 2701> 247 34<1279 1339.59> 361 33<998 1081 1118 1201 1279 1361.14 2600.28 2734.54> 482 42<1462 1535.91 1645.12 1750.79> 483 53<1103 1104 1268 1269 1645.26 1701.6> 601 40<1462 1530.82> 694 54<1184 1185 1739.39 1789.43> 706 42<1462 1532.4 1693 1789.16>
VStem: 1081 37<130 361> 1240 38<129 247 281 361> 1369 40<289.401 353.331> 1409 53<524 601 641 706> 1534 53<645.148 702.32> 1542 53<530.035 595.521> 1636 56<648.802 705.283> 1753 56<526.275 583.318> 1757 38<129 394> 1867 38<130 347> 2036 38<181 394> 2145 38<129 394> 2255 37<130 347> 2424 38<181 394> 2519 40<199.124 324.483> 2701 38<158.828 243>
LayerCount: 2
Fore
SplineSet
652 690 m 0xc9309fc0
 653 690 656 690 657 690 c 0
 659 690 659 690 661 690 c 0
 697.125 690 713 613 722 586 c 0
 733 553 742 520 751 486 c 0
 763 442 773 397 781 351 c 0
 787 321 791 290 795 259 c 0
 796 246 797 233 798 220 c 0
 798.21484375 217.208984375 799 214.583984375 799 212 c 3
 799 205.309570312 797.328125 198.935546875 793 191 c 0
 785.278320312 176.844726562 768 170 753 164 c 0
 748 162 743 160 738 158 c 0
 711 147 685 138 658 128 c 0
 593 105 527 85 461 67 c 0
 424 57 386 48 349 40 c 0
 317 33 287 26 255 20 c 0
 231 15 208 11 184 7 c 2
 154 3 l 2
 148 2 141 0 134 0 c 0
 132 0 131 0 128 1 c 0
 115 5 105 15 99 26 c 0
 96 30 94 33 92 37 c 1
 102 34 113 36 123 37 c 0
 150 41 177 47 204 52 c 0
 219 55 234 58 249 61 c 0
 376 86 502 120 624 164 c 0
 655 175 685 187 715 198 c 0
 726 202 737 206 744 215 c 0
 750 222 751 232 751 241 c 0
 751 243 751 246 751 248 c 0
 745 287 738 325 731 363 c 0
 718 429 704 495 686 560 c 0
 673.3125 605.815429688 650 687 650 687 c 1
 650 687 650 690 652 690 c 0xc9309fc0
627 800 m 0
 641 800 652 789 652 775 c 0
 652 761 641 750 627 750 c 0
 613 750 602 761 602 775 c 0
 602 789 613 800 627 800 c 0
  Spiro
    627 800 o
    639.693 796.636 o
    648.636 787.693 o
    652 775 o
    648.636 762.307 o
    639.693 753.364 o
    627 750 o
    614.307 753.364 o
    605.364 762.307 o
    602 775 o
    605.364 787.693 o
    614.307 796.636 o
    0 0 z
  EndSpiro
548 755 m 0
 562 755 573 744 573 730 c 0
 573 716 562 705 548 705 c 0
 534 705 522 716 522 730 c 0
 522 744 534 755 548 755 c 0
  Spiro
    548 755 o
    560.693 751.636 o
    569.636 742.693 o
    573 730 o
    569.636 717.307 o
    560.693 708.364 o
    548 705 o
    535.049 708.364 o
    525.623 717.307 o
    522 730 o
    525.623 742.693 o
    535.049 751.636 o
    0 0 z
  EndSpiro
463 741 m 0
 485 740 495 731 503 711 c 0
 551 589 585 462 604 333 c 0
 605 325 607 315 603 307 c 0
 599 298 588 292 578 288 c 0
 456 240 330 206 200 186 c 0
 195 185 189 184 183 184 c 0
 177 184 170 185 165 189 c 0
 158 195 155 204 151 212 c 0
 103 332 68 457 48 585 c 0
 47 590 47 596 47 602 c 0
 47 607 47 612 49 616 c 0
 55 629 70 636 83 642 c 0
 200 690 325 724 451 740 c 0
 452 741 455 741 456 741 c 0
 458 741 460 741 463 741 c 0
  Spiro
    463 741 o
    481.355 737.229 o
    493.973 727.431 o
    503 711 o
    546.258 587.569 o
    580.066 461.095 o
    604 333 o
    605.073 324.49 o
    605.258 315.51 o
    603 307 o
    596.971 298.97 o
    588.027 292.698 o
    578 288 o
    392 226.5 o
    200 186 o
    194.709 185.038 o
    188.957 184.296 o
    183 184 o
    176.784 184.407 o
    170.55 185.928 o
    165 189 o
    159.153 195.844 o
    154.848 203.823 o
    151 212 o
    107.447 333.469 o
    72.8962 458.2 o
    48 585 o
    47.2967 590.291 o
    47.0369 596.043 o
    47 602 o
    47.0739 606.958 o
    47.5935 611.708 o
    49 616 o
    57.5818 627.176 o
    69.7539 635.489 o
    83 642 o
    202.286 685.147 o
    325.717 718.176 o
    451 740 o
    452.517 740.703 o
    454.483 740.963 o
    456 741 o
    0 0 z
  EndSpiro
461 706 m 0xc9709fc0
 447 706 436 695 436 681 c 0
 436 667 447 656 461 656 c 0
 475 656 486 667 486 681 c 0
 486 695 475 706 461 706 c 0xc9709fc0
  Spiro
    461 706 o
    448.307 702.636 o
    439.364 693.693 o
    436 681 o
    439.364 668.307 o
    448.307 659.364 o
    461 656 o
    473.693 659.364 o
    482.636 668.307 o
    486 681 o
    482.636 693.693 o
    473.693 702.636 o
    0 0 z
  EndSpiro
381 661 m 0
 367 661 356 650 356 636 c 0
 356 622 367 611 381 611 c 0
 395 611 406 622 406 636 c 0
 406 650 395 661 381 661 c 0
  Spiro
    381 661 o
    368.307 657.636 o
    359.364 648.693 o
    356 636 o
    359.364 623.307 o
    368.307 614.364 o
    381 611 o
    393.693 614.364 o
    402.636 623.307 o
    406 636 o
    402.636 648.693 o
    393.693 657.636 o
    0 0 z
  EndSpiro
302 617 m 0
 288 617 276 606 276 592 c 0
 276 578 288 567 302 567 c 0
 316 567 327 578 327 592 c 0
 327 606 316 617 302 617 c 0
  Spiro
    302 617 o
    289.049 613.636 o
    279.623 604.693 o
    276 592 o
    279.623 579.307 o
    289.049 570.364 o
    302 567 o
    314.693 570.364 o
    323.636 579.307 o
    327 592 o
    323.636 604.693 o
    314.693 613.636 o
    0 0 z
  EndSpiro
319 531 m 0
 305 531 293 519 293 505 c 0
 293 491 305 480 319 480 c 0
 333 480 344 491 344 505 c 0
 344 519 333 531 319 531 c 0
  Spiro
    319 531 o
    306.049 527.377 o
    296.623 517.951 o
    293 505 o
    296.623 492.307 o
    306.049 483.364 o
    319 480 o
    331.693 483.364 o
    340.636 492.307 o
    344 505 o
    340.636 517.951 o
    331.693 527.377 o
    0 0 z
  EndSpiro
335 444 m 0
 321 444 310 433 310 419 c 0
 310 405 321 394 335 394 c 0
 349 394 361 405 361 419 c 0
 361 433 349 444 335 444 c 0
  Spiro
    335 444 o
    322.307 440.636 o
    313.364 431.693 o
    310 419 o
    313.364 406.307 o
    322.307 397.364 o
    335 394 o
    347.951 397.364 o
    357.377 406.307 o
    361 419 o
    357.377 431.693 o
    347.951 440.636 o
    0 0 z
  EndSpiro
351 357 m 0
 337 357 326 346 326 332 c 0
 326 318 337 307 351 307 c 0
 365 307 376 318 376 332 c 0
 376 346 365 357 351 357 c 0
  Spiro
    351 357 o
    338.307 353.636 o
    329.364 344.693 o
    326 332 o
    329.364 319.307 o
    338.307 310.364 o
    351 307 o
    363.693 310.364 o
    372.636 319.307 o
    376 332 o
    372.636 344.693 o
    363.693 353.636 o
    0 0 z
  EndSpiro
271 313 m 0
 257 313 245 302 245 288 c 0
 245 274 257 262 271 262 c 0
 285 262 296 274 296 288 c 0
 296 302 285 313 271 313 c 0
  Spiro
    271 313 o
    258.049 309.636 o
    248.623 300.693 o
    245 288 o
    248.623 275.049 o
    258.049 265.623 o
    271 262 o
    283.693 265.623 o
    292.636 275.049 o
    296 288 o
    292.636 300.693 o
    283.693 309.636 o
    0 0 z
  EndSpiro
191 268 m 0
 177 268 165 257 165 243 c 0
 165 229 177 217 191 217 c 0
 205 217 216 229 216 243 c 0xe9309fc0
 216 257 205 268 191 268 c 0
  Spiro
    191 268 o
    178.049 264.636 o
    168.623 255.693 o
    165 243 o
    168.623 230.049 o
    178.049 220.623 o
    191 217 o
    203.693 220.623 o
    212.636 230.049 o
    216 243 o
    212.636 255.693 o
    203.693 264.636 o
    0 0 z
  EndSpiro
105 219 m 0
 119 219 130 207 130 193 c 0
 130 179 119 168 105 168 c 0
 91 168 80 179 80 193 c 0
 80 207 91 219 105 219 c 0
  Spiro
    105 219 o
    117.693 215.377 o
    126.636 205.951 o
    130 193 o
    126.636 180.307 o
    117.693 171.364 o
    105 168 o
    92.3074 171.364 o
    83.3639 180.307 o
    80 193 o
    83.3639 205.951 o
    92.3074 215.377 o
    0 0 z
  EndSpiro
25 174 m 0
 39 174 50 162 50 148 c 0
 50 134 39 123 25 123 c 0
 11 123 0 134 0 148 c 0
 0 162 11 174 25 174 c 0
  Spiro
    25 174 o
    37.6926 170.377 o
    46.6361 160.951 o
    50 148 o
    46.6361 135.307 o
    37.6926 126.364 o
    25 123 o
    12.3074 126.364 o
    3.36393 135.307 o
    0 148 o
    3.36393 160.951 o
    12.3074 170.377 o
    0 0 z
  EndSpiro
1184 694 m 5xcbb09fc0
 1137 483 l 5
 1068 483 l 5
 998 748 l 5
 1054 748 l 5
 1103 536 l 5
 1104 536 l 5
 1149 748 l 5
 1221 748 l 5
 1268 536 l 5
 1269 536 l 5
 1319 748 l 5
 1371 748 l 5xcb709fc0
 1301 483 l 5
 1233 483 l 5
 1185 694 l 5
 1184 694 l 5xcbb09fc0
1534 620 m 5xcd769fc0
 1570 616 1595 592 1595 552.771904394 c 4xcd719fc0
 1595 492 1535 482 1501 482 c 6
 1409 482 l 5
 1409 748 l 5
 1501 748 l 6
 1535 748 1587 738 1587 682.970583727 c 4
 1587 648 1566 627 1534 621 c 5
 1534 620 l 5xcd769fc0
1462 706 m 5xc9769fc0
 1462 641 l 5
 1484 641 l 6
 1506 641 1534 646 1534 675.263658155 c 4
 1534 704 1507 706 1482 706 c 6
 1462 706 l 5xc9769fc0
1487 524 m 6xcd359fc0
 1512 524 1542 531 1542 563.551888244 c 4
 1542 595 1514 601 1487 601 c 6
 1462 601 l 5
 1462 524 l 5
 1487 524 l 6xcd359fc0
1792 743 m 6
 1789 699 l 5
 1772 706 1754 710 1738.67409819 710 c 4
 1717 710 1692 702 1692 678.290813208 c 4
 1692 627 1809 647 1809 557.026009388 c 4
 1809 500 1762 478 1706.47195621 478 c 4
 1680 478 1667 483 1641 489 c 6
 1646 536 l 5
 1664 526 1685 520 1702.41711492 520 c 4
 1726 520 1753 531 1753 555.337484988 c 4xcb30dfc0
 1753 606 1636 584 1636 674.348859326 c 4
 1636 731 1682 753 1730.37347917 753 c 4
 1751 753 1772 749 1792 743 c 6
1118 361 m 5
 1118 130 l 5
 1081 130 l 5
 1081 361 l 5
 998 361 l 5
 998 394 l 5
 1201 394 l 5
 1201 361 l 5
 1118 361 l 5
1380 235 m 6
 1429 129 l 5
 1385 129 l 5
 1345 221 l 6
 1334 247 1320 247 1300 247 c 6
 1278 247 l 5
 1278 129 l 5
 1240 129 l 5
 1240 394 l 5
 1305 394 l 6
 1358 394 1409 386 1409 329.653428891 c 4xd9389fc0
 1409 291 1385 268 1354 262 c 5
 1366 257 1372 251 1380 235 c 6
1311 281 m 6
 1348 281 1369 297 1369 322.112883292 c 4
 1369 346 1350 361 1315 361 c 6
 1279 361 l 5
 1279 281 l 5
 1311 281 l 6
1603 394 m 5
 1715 129 l 5
 1674 129 l 5
 1647 196 l 5
 1517 196 l 5
 1490 129 l 5
 1450 129 l 5
 1563 394 l 5
 1603 394 l 5
1529 227 m 5
 1634 227 l 5
 1581 359 l 5
 1529 227 l 5
1757 129 m 5xc930bfc0
 1757 394 l 5
 1795 394 l 5
 1795 129 l 5
 1757 129 l 5xc930bfc0
1905 347 m 5
 1905 130 l 5
 1867 130 l 5
 1867 394 l 5
 1918 394 l 5
 2035 181 l 5
 2036 181 l 5
 2036 394 l 5
 2074 394 l 5
 2074 130 l 5
 2025 130 l 5
 1905 347 l 5
2145 129 m 5
 2145 394 l 5
 2183 394 l 5
 2183 129 l 5
 2145 129 l 5
2292 347 m 5
 2292 130 l 5
 2255 130 l 5
 2255 394 l 5
 2306 394 l 5
 2423 181 l 5
 2424 181 l 5
 2424 394 l 5
 2462 394 l 5
 2462 130 l 5
 2413 130 l 5
 2293 347 l 5
 2292 347 l 5
2737 386 m 6
 2734 348 l 5
 2715 360 2695 366 2669.58950541 366 c 4
 2600 366 2559 321 2559 261.41937271 c 4
 2559 199 2604 158 2668.54147385 158 c 4
 2686 158 2691 161 2701 163 c 6
 2701 243 l 5
 2645 243 l 5
 2645 274 l 5
 2739 274 l 5xe9309fc0
 2739 137 l 6
 2725 132 2700 125 2666.90898379 125 c 4
 2575 125 2519 179 2519 260.917207055 c 4
 2519 345 2578 399 2670.004057 399 c 4
 2698 399 2715 394 2737 386 c 6
EndSplineSet
Validated: 1
EndChar

StartChar: uF6967
Encoding: 8 1010023 8
Width: 799
Flags: W
HStem: 0 21G<133 137.5> 123 51<0.384308 49.6157> 168 51<80.3843 129.616> 184 33<167.028 213.119> 357 37<326.934 359.673> 444 36<311.402 342.598> 531 36<294.402 325.893> 705 50<522.215 572.802> 706 35<439.191 484.542> 750 50<602.198 651.802>
VStem: 0 50<123.198 173.785> 80 50<168.198 218.785> 522 51<705.384 754.616> 602 50<750.198 799.802> 751 48<215.33 372.281>
LayerCount: 2
Fore
SplineSet
652 690 m 0x8e3e
 653 690 656 690 657 690 c 0
 659 690 659 690 661 690 c 0
 697.125 690 713 613 722 586 c 0
 733 553 742 520 751 486 c 0
 763 442 773 397 781 351 c 0
 787 321 791 290 795 259 c 0
 796 246 797 233 798 220 c 0
 798.214730699 217.208500915 799 214.583984375 799 212 c 3
 799 205.309570312 797.328489297 198.935563712 793 191 c 0
 785.278741398 176.84435923 768 170 753 164 c 0
 748 162 743 160 738 158 c 0
 711 147 685 138 658 128 c 0
 593 105 527 85 461 67 c 0
 424 57 386 48 349 40 c 0
 317 33 287 26 255 20 c 0
 231 15 208 11 184 7 c 2
 154 3 l 2
 148 2 141 0 134 0 c 0
 132 0 131 0 128 1 c 0
 115 5 105 15 99 26 c 0
 96 30 94 33 92 37 c 1
 102 34 113 36 123 37 c 0
 150 41 177 47 204 52 c 0
 219 55 234 58 249 61 c 0
 376 86 502 120 624 164 c 0
 655 175 685 187 715 198 c 0
 726 202 737 206 744 215 c 0
 750 222 751 232 751 241 c 0
 751 243 751 246 751 248 c 0
 745 287 738 325 731 363 c 0
 718 429 704 495 686 560 c 0
 673.312713231 605.81520222 650 687 650 687 c 1
 650 687 650 690 652 690 c 0x8e3e
627 800 m 0x8e7e
 641 800 652 789 652 775 c 0
 652 761 641 750 627 750 c 0
 613 750 602 761 602 775 c 0
 602 789 613 800 627 800 c 0x8e7e
  Spiro
    627 800 o
    639.693 796.636 o
    648.636 787.693 o
    652 775 o
    648.636 762.307 o
    639.693 753.364 o
    627 750 o
    614.307 753.364 o
    605.364 762.307 o
    602 775 o
    605.364 787.693 o
    614.307 796.636 o
    0 0 z
  EndSpiro
548 755 m 0x8f3e
 562 755 573 744 573 730 c 0
 573 716 562 705 548 705 c 0
 534 705 522 716 522 730 c 0
 522 744 534 755 548 755 c 0x8f3e
  Spiro
    548 755 o
    560.693 751.636 o
    569.636 742.693 o
    573 730 o
    569.636 717.307 o
    560.693 708.364 o
    548 705 o
    535.049 708.364 o
    525.623 717.307 o
    522 730 o
    525.623 742.693 o
    535.049 751.636 o
    0 0 z
  EndSpiro
463 741 m 0x9ebe
 485 740 495 731 503 711 c 0
 551 589 585 462 604 333 c 0
 605 325 607 315 603 307 c 0
 599 298 588 292 578 288 c 0
 456 240 330 206 200 186 c 0
 195 185 189 184 183 184 c 0
 177 184 170 185 165 189 c 0
 158 195 155 204 151 212 c 0
 103 332 68 457 48 585 c 0
 47 590 47 596 47 602 c 0
 47 607 47 612 49 616 c 0
 55 629 70 636 83 642 c 0
 200 690 325 724 451 740 c 0
 452 741 455 741 456 741 c 0
 458 741 460 741 463 741 c 0x9ebe
  Spiro
    463 741 o
    481.355 737.229 o
    493.973 727.431 o
    503 711 o
    546.258 587.569 o
    580.066 461.095 o
    604 333 o
    605.073 324.49 o
    605.258 315.51 o
    603 307 o
    596.971 298.97 o
    588.027 292.698 o
    578 288 o
    392 226.5 o
    200 186 o
    194.709 185.038 o
    188.957 184.296 o
    183 184 o
    176.784 184.407 o
    170.55 185.928 o
    165 189 o
    159.153 195.844 o
    154.848 203.823 o
    151 212 o
    107.447 333.469 o
    72.8962 458.2 o
    48 585 o
    47.2967 590.291 o
    47.0369 596.043 o
    47 602 o
    47.0739 606.958 o
    47.5935 611.708 o
    49 616 o
    57.5818 627.176 o
    69.7539 635.489 o
    83 642 o
    202.286 685.147 o
    325.717 718.176 o
    451 740 o
    452.517 740.703 o
    454.483 740.963 o
    456 741 o
    0 0 z
  EndSpiro
461 706 m 0
 447 706 436 695 436 681 c 0
 436 667 447 656 461 656 c 0
 475 656 486 667 486 681 c 0
 486 695 475 706 461 706 c 0
  Spiro
    461 706 o
    448.307 702.636 o
    439.364 693.693 o
    436 681 o
    439.364 668.307 o
    448.307 659.364 o
    461 656 o
    473.693 659.364 o
    482.636 668.307 o
    486 681 o
    482.636 693.693 o
    473.693 702.636 o
    0 0 z
  EndSpiro
381 661 m 0
 367 661 356 650 356 636 c 0
 356 622 367 611 381 611 c 0
 395 611 406 622 406 636 c 0
 406 650 395 661 381 661 c 0
  Spiro
    381 661 o
    368.307 657.636 o
    359.364 648.693 o
    356 636 o
    359.364 623.307 o
    368.307 614.364 o
    381 611 o
    393.693 614.364 o
    402.636 623.307 o
    406 636 o
    402.636 648.693 o
    393.693 657.636 o
    0 0 z
  EndSpiro
302 617 m 0
 288 617 276 606 276 592 c 0
 276 578 288 567 302 567 c 0
 316 567 327 578 327 592 c 0
 327 606 316 617 302 617 c 0
  Spiro
    302 617 o
    289.049 613.636 o
    279.623 604.693 o
    276 592 o
    279.623 579.307 o
    289.049 570.364 o
    302 567 o
    314.693 570.364 o
    323.636 579.307 o
    327 592 o
    323.636 604.693 o
    314.693 613.636 o
    0 0 z
  EndSpiro
319 531 m 0
 305 531 293 519 293 505 c 0
 293 491 305 480 319 480 c 0
 333 480 344 491 344 505 c 0
 344 519 333 531 319 531 c 0
  Spiro
    319 531 o
    306.049 527.377 o
    296.623 517.951 o
    293 505 o
    296.623 492.307 o
    306.049 483.364 o
    319 480 o
    331.693 483.364 o
    340.636 492.307 o
    344 505 o
    340.636 517.951 o
    331.693 527.377 o
    0 0 z
  EndSpiro
335 444 m 0
 321 444 310 433 310 419 c 0
 310 405 321 394 335 394 c 0
 349 394 361 405 361 419 c 0
 361 433 349 444 335 444 c 0
  Spiro
    335 444 o
    322.307 440.636 o
    313.364 431.693 o
    310 419 o
    313.364 406.307 o
    322.307 397.364 o
    335 394 o
    347.951 397.364 o
    357.377 406.307 o
    361 419 o
    357.377 431.693 o
    347.951 440.636 o
    0 0 z
  EndSpiro
351 357 m 0
 337 357 326 346 326 332 c 0
 326 318 337 307 351 307 c 0
 365 307 376 318 376 332 c 0
 376 346 365 357 351 357 c 0
  Spiro
    351 357 o
    338.307 353.636 o
    329.364 344.693 o
    326 332 o
    329.364 319.307 o
    338.307 310.364 o
    351 307 o
    363.693 310.364 o
    372.636 319.307 o
    376 332 o
    372.636 344.693 o
    363.693 353.636 o
    0 0 z
  EndSpiro
271 313 m 0
 257 313 245 302 245 288 c 0
 245 274 257 262 271 262 c 0
 285 262 296 274 296 288 c 0
 296 302 285 313 271 313 c 0
  Spiro
    271 313 o
    258.049 309.636 o
    248.623 300.693 o
    245 288 o
    248.623 275.049 o
    258.049 265.623 o
    271 262 o
    283.693 265.623 o
    292.636 275.049 o
    296 288 o
    292.636 300.693 o
    283.693 309.636 o
    0 0 z
  EndSpiro
191 268 m 0
 177 268 165 257 165 243 c 0
 165 229 177 217 191 217 c 0
 205 217 216 229 216 243 c 0
 216 257 205 268 191 268 c 0
  Spiro
    191 268 o
    178.049 264.636 o
    168.623 255.693 o
    165 243 o
    168.623 230.049 o
    178.049 220.623 o
    191 217 o
    203.693 220.623 o
    212.636 230.049 o
    216 243 o
    212.636 255.693 o
    203.693 264.636 o
    0 0 z
  EndSpiro
105 219 m 0xae3e
 119 219 130 207 130 193 c 0
 130 179 119 168 105 168 c 0
 91 168 80 179 80 193 c 0
 80 207 91 219 105 219 c 0xae3e
  Spiro
    105 219 o
    117.693 215.377 o
    126.636 205.951 o
    130 193 o
    126.636 180.307 o
    117.693 171.364 o
    105 168 o
    92.3074 171.364 o
    83.3639 180.307 o
    80 193 o
    83.3639 205.951 o
    92.3074 215.377 o
    0 0 z
  EndSpiro
25 174 m 0xce3e
 39 174 50 162 50 148 c 0
 50 134 39 123 25 123 c 0
 11 123 0 134 0 148 c 0
 0 162 11 174 25 174 c 0xce3e
  Spiro
    25 174 o
    37.6926 170.377 o
    46.6361 160.951 o
    50 148 o
    46.6361 135.307 o
    37.6926 126.364 o
    25 123 o
    12.3074 126.364 o
    3.36393 135.307 o
    0 148 o
    3.36393 160.951 o
    12.3074 170.377 o
    0 0 z
  EndSpiro
EndSplineSet
Validated: 1
EndChar

StartChar: uF6968
Encoding: 9 1010024 9
Width: 1908
Flags: W
HStem: 0 69<857.377 1001 1220 1404> 115 70<454.234 647.202> 155 70<1265 1419> 288 71<465 670.436 913.02 1144 1283 1487> 642 91<1076.54 1223> 696.144 103.856<819.84 1006>
VStem: 674.193 74.959<211.146 284.312> 748.663 84.0339<94.6059 213.051>
LayerCount: 2
Fore
SplineSet
1078 800 m 1x94
 1019 642 l 1
 987 642 l 1x98
 1006 696 l 1
 999.069462434 696.095990825 992.136344882 696.14406761 985.20165919 696.14406761 c 0
 630.920276016 696.14406761 272.546025719 570.662910129 45 298 c 1
 0 298 l 1
 251 644 645 798 1078 800 c 1x94
1079 733 m 1
 1384 712 1711 542 1908 298 c 1
 1867 298 l 1
 1651 515 1337 625 1047 642 c 1
 1079 733 l 1
1223 359 m 1
 1509 359 l 1
 1487 288 l 1
 1283 288 l 1
 1265 225 l 1
 1440 225 l 1
 1419 155 l 1
 1244 155 l 1xb0
 1220 69 l 1
 1424 69 l 1
 1404 0 l 1
 1118 0 l 1
 1223 359 l 1
1046 359 m 2
 1165 359 l 1
 1144 288 l 1
 1011 288 l 1
 925 288 852 246 835 169 c 0
 833.445458712 162.393199525 832.696450296 155.803180985 832.696450296 149.33647124 c 0
 832.696450296 105.884586007 866.513616226 68 917 68 c 2
 1001 68 l 1
 1017 120 l 2
 1029.49700588 160.374942076 1044.76635181 184.11584387 1106.33756454 184.11584387 c 0
 1108.81575478 184.11584387 1111.36895384 184.077383711 1114 184 c 1
 1060 0 l 1
 880 0 l 2
 796.114936572 11.2922200768 748.662511505 62.269992654 748.662511505 132.992751312 c 0x91
 748.662511505 149.951477293 751.391027302 168.045540538 757 187 c 0
 797.406288387 324.972692054 918.426173279 359.021831989 1040.6134052 359.021831989 c 0
 1042.40876878 359.021831989 1044.20438439 359.014480771 1046 359 c 2
632 359 m 1
 714.698061871 359 749.152112712 317.527078238 749.152112712 268.707903866 c 0
 749.152112712 198.87068138 678.644932438 114 578 114 c 0
 575 114 501 115 498 115 c 0
 473 115 453 100 447 80 c 2
 423 -1 l 1
 344 -1 l 1
 370 88 l 2
 387 146 428 184 506 185 c 0
 509 185 581 185 584 185 c 1
 584.435406699 184.995215311 584.869508482 184.992834413 585.302299216 184.992834413 c 0
 640.354463432 184.992834413 674.193148879 223.517036481 674.193148879 253.4463657 c 0xd2
 674.193148879 272.457026438 660.54059373 288 630 288 c 2
 445 288 l 1
 465 358 l 1
 632 359 l 1
EndSplineSet
Validated: 1
EndChar

StartChar: uF6969
Encoding: 10 1010025 10
Width: 3119
Flags: W
HStem: -12 117<832.257 979.928> -12 57<2054.26 2187.23 3030.33 3118.16> 0 72<1444 1664.59> 195 55<2010 2223> 364 56<2569 2650 2730 2826 2872 2943 3023 3119> 375 57<2055.04 2182.81> 486 117<0 187 353 540> 532 71<1444 1662.95> 544 71<2736.47 2837.04> 641 28<363.524 405.64>
VStem: 162 28<693.847 781.386> 187 166<0 486> 331 174<821 967.5> 619 166<154.029 603> 1027 167<152.648 603> 1360 84<72 532> 1764 87<183.943 421.511> 1928 81<95.146 195 250 319.434> 2223 83<83.2688 131 250 332.654> 2402 80<0 603> 2650 80<0 364 420 534.409> 2943 80<54.473 364 420 509>
LayerCount: 2
Fore
SplineSet
2306 195 m 1x5447fc
 2009 195 l 1
 2009 108 2041 45 2116 45 c 0
 2179 45 2209 70 2218 131 c 1
 2301 131 l 1
 2288 38 2218 -12 2115 -12 c 0
 1987 -12 1928 75 1928 207 c 0
 1928 272 1945 326 1978 369 c 0
 2011 411 2059 432 2122 432 c 0
 2238 432 2306 353 2306 234 c 2
 2306 195 l 1x5447fc
2010 250 m 1
 2223 250 l 1
 2223 326 2188 375 2116 375 c 0
 2053 375 2011 318 2010 250 c 1
2402 603 m 1x3147fc
 2482 603 l 1
 2482 0 l 1
 2402 0 l 1
 2402 603 l 1x3147fc
187 0 m 1x3257fc
 187 486 l 1
 0 486 l 1
 0 603 l 1
 540 603 l 1
 540 486 l 1
 353 486 l 1
 353 0 l 1
 187 0 l 1x3257fc
587 897 m 0
 605 902 624 914 645 932 c 0
 654 941 659 944 662 942 c 0
 665 940 665 934 661 924 c 0
 643 861 607 800 552 739 c 0
 497 678 437 645 373 641 c 0
 356 640 351 640 351 644 c 0
 351 652 375 660 391 669 c 0
 442 709 460 747 472 822 c 0
 475 838 475 846 472 847 c 0
 468 848 465 843 458 831 c 0
 443 806 407 777 376 777 c 0
 359 777 344 785 335 807 c 0
 332 812 331 818 331 824 c 0
 331 842 342 863 354 879 c 0
 370 899 393 935 400 964 c 0
 402 973 403 979 402 981 c 0
 400 986 394 981 384 964 c 0
 364 929 309 888 269 860 c 0
 228 831 190 780 190 723 c 0
 190 694 188 679 183 679 c 0
 180 679 175 693 169 722 c 0
 164 743 162 763 162 783 c 0
 162 896 238 987 390 1056 c 0
 415 1067 451 1079 496 1090 c 0
 541 1101 582 1113 619 1127 c 0
 656 1140 686 1159 710 1183 c 0
 723 1196 721 1206 725 1206 c 0
 730 1206 732 1203 732 1197 c 0
 732 1192 730 1184 727 1174 c 0
 721 1158 706 1140 681 1120 c 0
 656 1100 631 1082 606 1066 c 0
 554 1033 505 986 505 949 c 0x106ffc
 505 910 527 892 557 892 c 0
 566 892 576 893 587 897 c 0
2730 0 m 1x38c7fc
 2650 0 l 1
 2650 364 l 1
 2569 364 l 1
 2569 419 l 1
 2650 419 l 1
 2650 498 l 2
 2650 575 2702 615 2781 615 c 0
 2804 614 2823 611 2838 607 c 1
 2838 541 l 1
 2812 543 2799 544 2798 544 c 0
 2749 544 2730 534 2730 487 c 2
 2730 420 l 1
 2826 420 l 1
 2826 364 l 1
 2730 364 l 1
 2730 0 l 1x38c7fc
2872 420 m 1
 2872 419 l 1
 2943 419 l 1
 2943 509 l 1
 3023 534 l 1
 3023 420 l 1
 3119 420 l 1
 3119 364 l 1
 3023 364 l 1
 3023 93 l 2
 3023 64 3040 49 3074 49 c 0
 3087 49 3104 51 3119 54 c 1
 3119 -7 l 1
 3098 -10 3077 -12 3062 -12 c 0x5847fc
 3006 -12 2971 -2 2958 23 c 0
 2945 47 2943 61 2943 97 c 2
 2943 364 l 1
 2872 364 l 1
 2872 420 l 1
1444 532 m 1x3147fc
 1444 531 l 1
 1444 72 l 1
 1567 72 l 2
 1633 72 1682 94 1715 137 c 0
 1748 180 1764 235 1764 302 c 0
 1764 369 1748 425 1715 468 c 0
 1682 511 1633 532 1567 532 c 2
 1444 532 l 1x3147fc
1360 0 m 1
 1360 603 l 1
 1567 603 l 2
 1664 603 1741 566 1779 522 c 0
 1798 499 1813 473 1825 443 c 0
 1848 383 1851 345 1851 302 c 0
 1851 285 1850 268 1848 251 c 0
 1843 215 1832 160 1805 119 c 0
 1792 98 1775 79 1756 60 c 0
 1716 23 1648 0 1567 0 c 2
 1360 0 l 1
906 105 m 0x9147fc
 983 105 1027 155 1027 230 c 2
 1027 603 l 1
 1194 603 l 1
 1194 222 l 2
 1193 115 1132 41 1049 11 c 0
 1007 -5 959 -12 906 -12 c 0
 823 -12 755 7 701 46 c 0
 647 85 620 143 619 222 c 2
 619 603 l 1
 785 603 l 1
 785 230 l 2
 785 155 830 105 906 105 c 0x9147fc
EndSplineSet
Validated: 5
EndChar

StartChar: uF696A
Encoding: 11 1010026 11
Width: 914
Flags: W
HStem: 0 160<76 838> 206 319<115 229 305 419 495 609 685 800> 571 114<416.517 497.483> 800 114<415.407 498.593>
VStem: 115 114<206 525> 305 114<206 525> 495 114<206 525> 685 115<206 525>
LayerCount: 2
Fore
SplineSet
76 160 m 1
 838 160 l 1
 888 122 l 2
 905.285714286 107.071428571 913.928571429 88.4387755102 913.928571429 66.5870991254 c 0
 913.928571429 60.6275510204 913.285714286 54.4285714286 912 48 c 0
 902 17 883 1 856 0 c 2
 58 0 l 2
 31 1 12 17 2 48 c 0
 0.714285714286 54.4285714286 0.0714285714286 60.6275510204 0.0714285714286 66.5870991254 c 0
 0.0714285714286 88.4387755102 8.71428571429 107.071428571 26 122 c 2
 76 160 l 1
457 914 m 0
 465 914 473 912 481 908 c 2
 880 738 l 2
 902.491503248 726.754248376 914 708.773571508 914 686.00000264 c 3
 914 682.44750588 913.539768731 678.778381118 913 675 c 0
 905 646 886 631 856 629 c 1
 856 614 l 2
 854 588 841 574 814 571 c 2
 100 571 l 2
 73 574 60 588 58 614 c 2
 58 629 l 1
 28 631 9 646 1 675 c 0
 0 679 0 682 0 686 c 0
 0 709 12 727 34 738 c 2
 433 908 l 2
 441 912 449 914 457 914 c 0
457 800 m 0
 440 800 427 795 416 784 c 0
 405 773 399 760 399 743 c 0
 399 726 405 712 416 701 c 0
 427 690 440 685 457 685 c 0
 474 685 487 690 498 701 c 0
 509 712 515 726 515 743 c 0
 515 760 509 773 498 784 c 0
 487 795 474 800 457 800 c 0
305 525 m 1
 419 525 l 1
 419 206 l 1
 305 206 l 1
 305 525 l 1
115 525 m 1
 229 525 l 1
 229 206 l 1
 115 206 l 1
 115 525 l 1
685 525 m 1
 800 525 l 1
 800 206 l 1
 685 206 l 1
 685 525 l 1
495 525 m 1
 609 525 l 1
 609 206 l 1
 495 206 l 1
 495 525 l 1
EndSplineSet
Validated: 1
EndChar

StartChar: uF696B
Encoding: 12 1010027 12
Width: 1000
Flags: W
HStem: 0 21G<18.0938 150 200 400 600 800 850 981.906> 250 150<430.113 569.887> 475 50<525 575> 650 149.971<463.403 546.549>
VStem: 0 150<0.200766 490.774> 199.977 175.023<455.113 594.887> 475 100<475 525> 475 50<525 600> 600 200<0 249.799> 625 175<455.113 594.887> 850 150<0.200766 490.774>
LayerCount: 2
Fore
SplineSet
0 450 m 6xfc20
 0 477.609375 22.390625 500 50 500 c 6
 150 500 l 5
 150 0 l 5
 25 0 l 6
 11.1875 0 0 11.1875 0 25 c 6
 0 450 l 6xfc20
562.5 525 m 6
 569.40625 525 575 519.40625 575 512.5 c 6
 575 487.5 l 6
 575 480.59375 569.40625 475 562.5 475 c 6
 487.5 475 l 6
 480.59375 475 475 480.59375 475 487.5 c 6xfe20
 475 587.5 l 6
 475 594.40625 480.59375 600 487.5 600 c 6
 512.5 600 l 6
 519.40625 600 525 594.40625 525 587.5 c 6
 525 525 l 5xfd20
 562.5 525 l 6
777.734375 624.9375 m 6
 791.640625 615.671875 800 600.046875 800 583.328125 c 6xfe60
 800 0 l 5
 600 0 l 5
 600 225 l 6xfca0
 600 238.8125 588.8125 250 575 250 c 6
 425 250 l 6
 411.1875 250 400 238.8125 400 225 c 6
 400 0 l 5
 200 0 l 5
 200 0 199.977430556 259.250868056 199.977430556 432.093460648 c 4
 199.977430556 518.514756944 199.983072917 583.333984375 200 583.34375 c 4
 200.00390625 600.700195312 208.819335938 615.973632812 222.265625 624.9375 c 6
 222.265625 624.9375 472.265655924 791.541712655 472.265655924 791.609354397 c 0
 472.265655924 791.609368132 472.265645617 791.609375 472.265625 791.609375 c 5
 480.1953125 796.890625 489.817382812 799.970703125 500.05078125 799.970703125 c 4
 510.284179688 799.970703125 519.8046875 796.890625 527.734375 791.609375 c 6
 777.734375 624.9375 l 6
500 400 m 4
 569.03125 400 625 455.96875 625 525 c 4
 625 594.03125 569.03125 650 500 650 c 4
 430.96875 650 375 594.03125 375 525 c 4
 375 455.96875 430.96875 400 500 400 c 4
950 500 m 6
 977.609375 500 1000 477.609375 1000 450 c 6
 1000 25 l 6
 1000 11.1875 988.8125 0 975 0 c 6
 850 0 l 5
 850 500 l 5
 950 500 l 6
EndSplineSet
Validated: 1
EndChar

StartChar: uF696C
Encoding: 13 1010028 13
Width: 1100
Flags: W
HStem: 0 241<499.875 600.125>
LayerCount: 2
Fore
SplineSet
0 585 m 1
 516 252 l 2
 525 245 538 241 550 241 c 0
 562 241 575 245 584 252 c 2
 1100 585 l 1
 1100 101 l 2
 1100 72 1091 48 1070 28 c 0
 1050 9 1028 0 999 0 c 2
 101 0 l 2
 72 0 50 9 30 28 c 0
 9 48 0 72 0 101 c 2
 0 585 l 1
103 800 m 2
 550 800 l 1
 999 800 l 2
 1028 800 1050 791 1070 771 c 0
 1083 759 1092 744 1096 728 c 1
 550 373 l 1
 4 728 l 1
 8 744 17 759 30 771 c 0
 50 791 74 800 103 800 c 2
EndSplineSet
Validated: 1
EndChar

StartChar: uF696D
Encoding: 14 1010029 14
Width: 1100
Flags: W
HStem: 0 125<587.786 773.369> 340.164 459.836<659 765.9> 675 125<326.521 424.407>
VStem: 0 261.25<431.434 597.542> 838.75 261.25<190.467 287.652>
LayerCount: 2
Fore
SplineSet
149 800 m 2xb8
 951 800 l 2
 1034 800 1100 734 1100 651 c 2
 1100 150 l 2
 1100 67 1034 0 951 0 c 2
 149 0 l 2
 66 0 0 67 0 150 c 2
 0 651 l 2
 0 734 66 800 149 800 c 2xb8
374.84375 675 m 0
 358.325195312 675 341.1171875 668.815429688 328.728515625 656.447265625 c 0
 281.21278733 609.642828716 261.25044142 563.57253678 261.25044142 517.438078506 c 0
 261.25044142 434.295638346 326.084955345 350.944796163 411.322265625 262.712890625 c 1
 515.505264611 159.300979212 622.764254473 125.000395227 695.252072775 125.000395227 c 0
 732.837190581 125.000395227 761.074256854 134.221931699 774.6875 147.8125 c 2
 820.166015625 193.310546875 l 2
 832.754882812 205.87890625 838.75 221.965820312 838.75 238.111328125 c 0
 838.75 261.689453125 825.966796875 285.393554688 802.271484375 298.4453125 c 2
 741.013671875 332.115234375 l 2
 730.720703125 337.5234375 719.467773438 340.1640625 708.388671875 340.1640625 c 0xd8
 691.315429688 340.1640625 674.653320312 333.891601562 662.548828125 321.806640625 c 2
 647.40625 306.689453125 l 1
 647.40625 306.689453125 641.353515625 300.8828125 627.423828125 300.8828125 c 0
 607.80859375 300.8828125 572.57421875 312.396484375 516.630859375 367.845703125 c 0
 461.451171875 422.538085938 449.7734375 457.114257812 449.7734375 476.5859375 c 0
 449.7734375 490.874023438 456.060546875 497.029296875 456.060546875 497.029296875 c 1
 465.697265625 506.6484375 l 2
 477.96875 518.899414062 484.212890625 535.36328125 484.212890625 552.029296875 c 0
 484.212890625 566.209960938 479.69140625 580.5390625 470.515625 592.54296875 c 2
 429.90625 646.826171875 l 2
 416.140625 664.69140625 394.803710938 675 374.84375 675 c 0
EndSplineSet
Validated: 1
EndChar

StartChar: uF696E
Encoding: 15 1010030 15
Width: 800
Flags: W
HStem: 0 67<67 733> 154.412 29.1377<67 234.332 585.82 732.956> 616.45 29.1377<67 191.875 573.992 733> 733 67<67 733>
VStem: 0 67<67 154.412 224.343 616.45 645.588 733> 733 67<67 154.412 645.588 733>
LayerCount: 2
Fore
SplineSet
67 67 m 5
 733 67 l 5
 733 154.412109375 l 5
 67 154.412109375 l 5
 67 67 l 5
67 645.587890625 m 5
 733 645.587890625 l 5
 733 733 l 5
 67 733 l 5
 67 645.587890625 l 5
573.9921875 616.450195312 m 5
 67 183.549804688 l 5
 234.33203125 183.549804688 l 5
 733 616.450195312 l 5
 573.9921875 616.450195312 l 5
67 616.450195312 m 5
 67 224.342773438 l 5
 191.875 328.405273438 l 5
 191.875 616.450195312 l 5
 67 616.450195312 l 5
520.712890625 390.842773438 m 5
 434.96484375 315.084960938 l 5
 499.900390625 285.947265625 554.844726562 240.16015625 595.637695312 183.549804688 c 4
 595.915039062 183.272460938 611.26953125 183.1796875 631.620117188 183.1796875 c 0
 672.3203125 183.1796875 733 183.549804688 733 183.549804688 c 5
 693.040039062 275.125 616.450195312 350.049804688 520.712890625 390.842773438 c 5
0 0 m 1
 0 800 l 1
 800 800 l 1
 800 0 l 1
 0 0 l 1
EndSplineSet
Validated: 1
EndChar

StartChar: uF696F
Encoding: 16 1010031 16
Width: 800
Flags: W
HStem: 0 105<0 800> 695 105<0 800>
VStem: 0 150<314 660>
LayerCount: 2
Fore
SplineSet
0 0 m 5
 0 105 l 5
 800 105 l 5
 800 0 l 5
 0 0 l 5
0 695 m 5
 0 800 l 5
 800 800 l 5
 800 695 l 5
 0 695 l 5
609 660 m 5
 800 660 l 5
 201 140 l 5
 0 140 l 5
 609 660 l 5
0 660 m 5
 150 660 l 5
 150 314 l 5
 0 189 l 5
 0 660 l 5
545 389 m 5
 660 340 752 250 800 140 c 5
 800 140 727.111111111 139.555555556 678.222222222 139.555555556 c 0
 653.777777778 139.555555556 635.333333333 139.666666667 635 140 c 4
 586 208 520 263 442 298 c 5
 545 389 l 5
EndSplineSet
Validated: 1
EndChar

StartChar: uF6970
Encoding: 17 1010032 17
Width: 1100
Flags: W
HStem: 0 242<630 760.908 792.119 923> 0 62<80.0413 550> 300 62<261 352> 450 46<636 698> 558 242<630 746 808 943.67> 738 62<80.0413 550>
VStem: 0 66<74.8023 725.198> 550 80<242 304 380.848 450 496 558>
LayerCount: 2
Fore
SplineSet
126 800 m 2x77
 974 800 l 2
 1043 800 1100 747 1100 682 c 2
 1100 118 l 2
 1100 53 1043 0 974 0 c 2
 126 0 l 2
 57 0 0 53 0 118 c 2
 0 682 l 2
 0 747 57 800 126 800 c 2x77
126 738 m 2
 93 738 66 713 66 682 c 2
 66 118 l 2
 66 87 93 62 126 62 c 2
 550 62 l 1
 550 738 l 1
 126 738 l 2
746 618 m 1
 746 558 l 1
 630 558 l 1
 630 496 l 1
 888 496 l 1
 882 467 866 427 837 392 c 0
 819 370 799 351 775 338 c 1
 727 365 698 405 698 450 c 1
 636 450 l 1
 636 396 662 348 705 312 c 1
 682 307 657 304 630 304 c 1
 630 242 l 1
 688 242 737 253 776 270 c 1
 818 252 868 242 923 242 c 1
 923 304 l 1
 896 304 870 307 846 312 c 1
 925 377 951 470 954 518 c 0
 955 528 951 539 944 546 c 0
 937 553 927 558 917 558 c 2
 808 558 l 1xbb
 808 618 l 1
 746 618 l 1
268 558 m 1
 351 558 l 1
 483 242 l 1
 399 242 l 1
 376 300 l 1
 237 300 l 1
 215 242 l 1
 132 242 l 1
 268 558 l 1
307 478 m 1
 261 362 l 1
 352 362 l 1
 307 478 l 1
EndSplineSet
Validated: 1
EndChar

StartChar: uF6971
Encoding: 18 1010033 18
Width: 1100
Flags: W
HStem: 0 101<108.121 991.879> 226 107<261.839 439.706> 250 100<609.117 890.883> 376 200<288.358 411.642> 451 100<608.438 891.562> 700 100<108.121 991.879>
VStem: 0 100<109.121 691.879> 250 200<414.358 537.642> 1000 100<109.121 691.879>
LayerCount: 2
Fore
SplineSet
650 350 m 2xa780
 850 350 l 2
 878 350 900 329 900 301 c 0
 900 273 878 250 850 250 c 2
 650 250 l 2
 622 250 600 273 600 301 c 0
 600 329 622 350 650 350 c 2xa780
650 551 m 2x8f80
 850 551 l 2
 878 551 900 529 900 501 c 0
 900 473 878 451 850 451 c 2
 650 451 l 2
 622 451 600 473 600 501 c 0
 600 529 622 551 650 551 c 2x8f80
149 800 m 2
 951 800 l 2
 1034 800 1100 734 1100 651 c 2
 1100 150 l 2
 1100 67 1034 0 951 0 c 2
 149 0 l 2
 66 0 0 67 0 150 c 2
 0 651 l 2
 0 734 66 800 149 800 c 2
149 700 m 2
 121 700 100 679 100 651 c 2
 100 150 l 2
 100 122 121 101 149 101 c 2
 951 101 l 2
 979 101 1000 122 1000 150 c 2
 1000 651 l 2
 1000 679 979 700 951 700 c 2
 149 700 l 2
250 476 m 0
 250 531 295 576 350 576 c 0
 405 576 450 531 450 476 c 0
 450 421 405 376 350 376 c 0x9780
 295 376 250 421 250 476 c 0
350 333 m 0xc780
 428 333 475 296 475 261 c 0
 475 243 428 226 350 226 c 0
 276 226 225 243 225 261 c 0
 225 296 274 333 350 333 c 0xc780
EndSplineSet
Validated: 1
EndChar

StartChar: uF6972
Encoding: 19 1010034 19
Width: 1100
Flags: W
HStem: 0 250<609.117 890.883> 0 226<234.125 466.438> 333 43<290.027 410.854> 350 101<608.438 891.562> 551 249<608.438 891.562> 576 224<288.358 411.642>
LayerCount: 2
Fore
SplineSet
650 350 m 2x90
 622 350 600 329 600 301 c 0
 600 273 622 250 650 250 c 2
 850 250 l 2
 878 250 900 273 900 301 c 0
 900 329 878 350 850 350 c 2
 650 350 l 2x90
650 551 m 2x18
 622 551 600 529 600 501 c 0
 600 473 622 451 650 451 c 2
 850 451 l 2
 878 451 900 473 900 501 c 0
 900 529 878 551 850 551 c 2
 650 551 l 2x18
149 800 m 2x44
 951 800 l 2
 1034 800 1100 734 1100 651 c 2
 1100 150 l 2
 1100 67 1034 0 951 0 c 2
 149 0 l 2
 66 0 0 67 0 150 c 2
 0 651 l 2
 0 734 66 800 149 800 c 2x44
250 476 m 0
 250 421 295 376 350 376 c 0x24
 405 376 450 421 450 476 c 0
 450 531 405 576 350 576 c 0
 295 576 250 531 250 476 c 0
350 333 m 0
 274 333 225 296 225 261 c 0
 225 243 276 226 350 226 c 0x60
 428 226 475 243 475 261 c 0
 475 296 428 333 350 333 c 0
EndSplineSet
Validated: 1
EndChar

StartChar: uF6973
Encoding: 20 1010035 20
Width: 800
Flags: W
HStem: 0 96<96 544> 544 96<96 256> 680 120<447.235 595>
VStem: 0 96<96 544> 544 96<96 256> 680 120<447.235 595>
LayerCount: 2
Fore
SplineSet
80 640 m 2
 112 640 l 1
 125 640 l 1
 208 640 l 1
 236 640 l 2
 247 640 256 632 256 621 c 2
 256 563 l 2
 256 552 247 544 236 544 c 2
 208 544 l 1
 112 544 l 2
 103 544 96 537 96 528 c 2
 96 112 l 2
 96 103 103 96 112 96 c 2
 528 96 l 2
 537 96 544 103 544 112 c 2
 544 208 l 1
 544 237 l 2
 544 248 552 256 563 256 c 2
 620 256 l 2
 631 256 640 248 640 237 c 2
 640 208 l 1
 640 142 l 1
 640 112 l 1
 640 80 l 2
 640 36 604 0 560 0 c 2
 528 0 l 1
 112 0 l 1
 80 0 l 2
 36 0 0 36 0 80 c 2
 0 112 l 1
 0 528 l 1
 0 560 l 2
 0 604 36 640 80 640 c 2
464 800 m 2
 500 800 l 1
 740 800 l 2
 773 800 800 773 800 740 c 2
 800 500 l 1
 800 500 800 484 800 473 c 0
 800 468 800 464 800 464 c 1
 800 458 798 452 793 447 c 0
 788 442 782 440 776 440 c 2
 776 440 743 440 722 440 c 0
 711 440 704 440 704 440 c 1
 698 440 692 442 687 447 c 0
 682 452 680 458 680 464 c 2
 680 500 l 1
 680 595 l 1
 442 358 l 1
 417 332 l 1
 413 328 407 325 400 325 c 0
 393 325 387 328 383 332 c 2
 332 383 l 1
 328 387 325 393 325 400 c 0
 325 407 328 413 332 417 c 2
 357 442 l 1
 595 680 l 1
 500 680 l 1
 500 680 484 680 473 680 c 0
 468 680 464 680 464 680 c 1
 458 680 452 682 447 687 c 0
 442 692 440 698 440 704 c 2
 440 776 l 2
 440 782 442 788 447 793 c 0
 452 798 458 800 464 800 c 2
EndSplineSet
Validated: 1
EndChar

StartChar: NameMe.21
Encoding: 21 1010036 21
Width: 800
Flags: W
HStem: 0 53<347.207 453.793> 68.9058 53.0942<167.484 219.5 581 633.516> 240 53<337.128 463.052> 293 54<54.168 115.512 687.097 746.789> 453 54<54.168 116.105 684.895 746.789> 507 53<337.128 463.052> 631.058 99.8331<223.125 242.078 558.922 577.75> 747 53<347.207 453.793>
VStem: 0 54<347.847 452.153> 68.9058 54.0942<165.737 219.874> 240 54<336.948 463.052> 294 53<54.168 115.476 686.097 746.119> 454 53<54.168 115.476 686.097 746.119> 507 53<336.948 463.052> 678 53.1071<165.64 219.684> 747 53<347.847 452.153>
LayerCount: 2
Fore
SplineSet
733 507 m 2xdbc7
 771 507 800 479 800 442 c 2
 800 358 l 2
 800 321 771 293 733 293 c 2
 701 293 l 2
 695 293 689 288 687 282 c 0
 684 276 684 268 688 263 c 2
 711 241 l 2
 718.866837077 233.133162923 731.107142857 216.772769604 731.107142857 191.1446793 c 0
 731.107142857 174.454081633 725.071428571 158.071428571 713 146 c 2
 654 88 l 2
 641.818948819 75.8189488189 625.248015748 68.9057559056 608.400537401 68.9057559056 c 0
 607.267858268 68.9057559056 606.133929134 68.937003937 605 69 c 0
 588 70 573 77 560 90 c 2xdbc7
 537 112 l 2
 534 116 528 117 519 113 c 0
 516 112 514 111 512 109 c 0
 510 107 507 104 507 100 c 2
 507 68 l 2
 507 30 479 0 442 0 c 2
 359 0 l 2
 322 0 294 30 294 68 c 2
 294 100 l 2
 294 104 291 107 289 109 c 0
 287 111 285 112 282 113 c 0
 273 117 267 116 264 112 c 2
 241 90 l 2
 228 77 212 70 195 69 c 0
 193.866070866 68.937003937 192.736110236 68.9057559056 191.610868111 68.9057559056 c 0
 174.874007874 68.9057559056 159.181051181 75.8189488189 147 88 c 2
 88 146 l 2
 75.8189488189 158.181051181 68.9057559056 174.751984252 68.9057559056 191.599462599 c 0
 68.9057559056 201.72826901 71.4854843009 222.485484301 90 241 c 2
 113 263 l 2
 117 268 116 276 113 282 c 0
 111 288 106 293 100 293 c 2
 68 293 l 2
 30 293 0 321 0 358 c 2
 0 442 l 2
 0 479 30 507 68 507 c 2
 100 507 l 2
 106 507 112 513 114 519 c 0
 117 525 117 533 113 537 c 2
 90 559 l 2
 76.1180264876 572.367826345 69.1090830213 589.965209642 69.1090830213 607.442920441 c 0
 69.1090830213 623.958805087 75.3678263453 640.367826345 88 653 c 2
 147 712 l 2
 159.632173655 724.632173655 175.805141938 730.890916979 192.192981654 730.890916979 c 0
 209.535190643 730.890916979 227.118026488 723.881973512 241 710 c 2
 264 688 l 2
 267 685 274 684 280 686 c 0
 287 688 294 695 294 700 c 2
 294 732 l 2
 294 771 322 800 359 800 c 2
 442 800 l 2
 479 800 507 771 507 732 c 2
 507 700 l 2xdbdb
 507 695 514 688 521 686 c 0
 527 684 534 685 537 688 c 2
 560 710 l 2
 573.881973512 723.881973512 591.464809357 730.890916979 608.807018346 730.890916979 c 0
 625.194858062 730.890916979 641.367826345 724.632173655 654 712 c 2
 713 653 l 2
 725.632173655 640.367826345 731.890916979 623.958805087 731.890916979 607.442920441 c 0
 731.890916979 589.965209642 724.881973512 572.367826345 711 559 c 2
 688 537 l 2
 684 533 684 525 687 519 c 0
 689 513 695 507 701 507 c 2
 733 507 l 2xdbc7
747 358 m 2
 747 442 l 2
 747 451 738 453 733 453 c 2
 701 453 l 2
 674 453 649 471 638 498 c 0
 633.966666667 507.9 631.95 518.337777778 631.95 528.524592593 c 0
 631.95 546.12 637.966666667 562.966666667 650 575 c 2
 673 597 l 2
 675 599 683 608 675 616 c 2
 616 674 l 2
 609 681 601 676 597 672 c 2
 575 650 l 2
 563.064100523 638.064100523 545.70563129 631.057809916 527.424069401 631.057809916 c 0
 519.667664674 631.057809916 511.745094918 632.319005605 504 635 c 0
 474 645 454 671 454 700 c 2
 454 732 l 2
 454 739 451 747 442 747 c 2
 359 747 l 2
 350 747 347 739 347 732 c 2
 347 700 l 2
 347 671 326 645 296 635 c 0
 288.254905082 632.319005605 280.421072745 631.057809916 272.789275184 631.057809916 c 0
 254.801407823 631.057809916 237.935899477 638.064100523 226 650 c 2
 203 672 l 2
 199 676 191 681 184 674 c 2
 126 616 l 2
 118 608 126 599 128 597 c 2
 151 575 l 2
 163.033333333 562.966666667 169.05 546.12 169.05 528.524592593 c 0
 169.05 518.337777778 167.033333333 507.9 163 498 c 0
 152 471 127 453 100 453 c 2
 68 453 l 2
 63 453 54 451 54 442 c 2
 54 358 l 2
 54 349 63 347 68 347 c 2
 100 347 l 2
 126 347 150 330 162 303 c 0
 166.8 292.6 169.2 281.56 169.2 270.84 c 0
 169.2 254.76 163.8 239.4 153 228 c 2
 150 225 l 1
 128 203 l 2
 125 200 123 195 123 192 c 0
 123 189 124 186 126 184 c 2
 185 126 l 2
 187 123 190 122 193 122 c 0
 197 122 200 124 203 127 c 2
 226 150 l 2
 238 162 255 169 273 169 c 0
 284 169 294 166 303 162 c 0
 311 159 320 154 327 147 c 0
 340 134 347 118 347 100 c 2
 347 68 l 2
 347 62 350 53 359 53 c 2
 442 53 l 2
 451 53 454 62 454 68 c 2
 454 100 l 2xdbdb
 454 118 461 134 474 147 c 0
 481 154 489 159 497 162 c 0
 506 166 518 169 528 169 c 0
 546 169 563 162 575 150 c 2
 597 127 l 2
 600 124 604 122 608 122 c 0
 611 122 614 123 616 126 c 2
 675 184 l 2
 677 186 678 189 678 192 c 0
 678 195 676 200 673 203 c 2
 651 225 l 1
 648 228 l 2
 637.2 239.4 631.8 254.76 631.8 270.84 c 0
 631.8 281.56 634.2 292.6 639 303 c 0
 651 330 675 347 701 347 c 2
 733 347 l 2
 738 347 747 349 747 358 c 2
400 240 m 0xe7e7
 312 240 240 312 240 400 c 0
 240 488 312 560 400 560 c 0
 488 560 560 488 560 400 c 0
 560 312 488 240 400 240 c 0xe7e7
400 507 m 0
 341 507 294 459 294 400 c 0
 294 341 341 293 400 293 c 0
 459 293 507 341 507 400 c 0
 507 459 459 507 400 507 c 0
EndSplineSet
Validated: 5
EndChar

StartChar: uF6975
Encoding: 22 1010037 22
Width: 800
Flags: W
HStem: 0 21G<340.5 460.5> 293 214<17.5095 115.602 687.097 782.944>
VStem: 294 213<17.5095 115.543 686.097 782.841>
LayerCount: 2
Fore
SplineSet
733 507 m 2
 771 507 800 479 800 442 c 2
 800 358 l 2
 800 321 771 293 733 293 c 2
 701 293 l 2
 695 293 689 288 687 282 c 0
 684 276 684 268 688 263 c 2
 711 241 l 2
 718.866837077 233.133162923 731.107142857 216.772769604 731.107142857 191.1446793 c 0
 731.107142857 174.454081633 725.071428571 158.071428571 713 146 c 2
 654 88 l 2
 641.818948819 75.8189488189 625.248015748 68.9057559056 608.400537401 68.9057559056 c 0
 607.267858268 68.9057559056 606.133929134 68.937003937 605 69 c 0
 588 70 573 77 560 90 c 2
 537 112 l 2
 534 116 528 117 519 113 c 0
 516 112 514 111 512 109 c 0
 510 107 507 104 507 100 c 2
 507 68 l 2
 507 30 479 0 442 0 c 2
 359 0 l 2
 322 0 294 30 294 68 c 2
 294 100 l 2
 294 104 291 107 289 109 c 0
 287 111 285 112 282 113 c 0
 273 117 267 116 264 112 c 2
 241 90 l 2
 228 77 212 70 195 69 c 0
 193.866070866 68.937003937 192.736110236 68.9057559056 191.610868111 68.9057559056 c 0
 174.874007874 68.9057559056 159.181051181 75.8189488189 147 88 c 2
 88 146 l 2
 75.8189488189 158.181051181 68.9057559056 174.751984252 68.9057559056 191.599462599 c 0
 68.9057559056 201.72826901 71.4854843009 222.485484301 90 241 c 2
 113 263 l 2
 117 268 116 276 113 282 c 0
 111 288 106 293 100 293 c 2
 68 293 l 2
 30 293 0 321 0 358 c 2
 0 442 l 2
 0 479 30 507 68 507 c 2
 100 507 l 2
 106 507 112 513 114 519 c 0
 117 525 117 533 113 537 c 2
 90 559 l 2
 76.1180264876 572.367826345 69.1090830213 589.965209642 69.1090830213 607.442920441 c 0
 69.1090830213 623.958805087 75.3678263453 640.367826345 88 653 c 2
 147 712 l 2
 159.632173655 724.632173655 175.805141938 730.890916979 192.192981654 730.890916979 c 0
 209.535190643 730.890916979 227.118026488 723.881973512 241 710 c 2
 264 688 l 2
 267 685 274 684 280 686 c 0
 287 688 294 695 294 700 c 2
 294 732 l 2
 294 771 322 800 359 800 c 2
 442 800 l 2
 479 800 507 771 507 732 c 2
 507 700 l 2
 507 695 514 688 521 686 c 0
 527 684 534 685 537 688 c 2
 560 710 l 2
 573.881973512 723.881973512 591.464809357 730.890916979 608.807018346 730.890916979 c 0
 625.194858062 730.890916979 641.367826345 724.632173655 654 712 c 2
 713 653 l 2
 725.632173655 640.367826345 731.890916979 623.958805087 731.890916979 607.442920441 c 0
 731.890916979 589.965209642 724.881973512 572.367826345 711 559 c 2
 688 537 l 2
 684 533 684 525 687 519 c 0
 689 513 695 507 701 507 c 2
 733 507 l 2
400 507 m 0
 341 507 294 459 294 400 c 0
 294 341 341 293 400 293 c 0
 459 293 507 341 507 400 c 0
 507 459 459 507 400 507 c 0
EndSplineSet
Validated: 1
EndChar

StartChar: uF6976
Encoding: 23 1010038 23
Width: 695
Flags: W
HStem: 0.0996094 53.2871<293.163 401.883> 106.716 53.3301<59.2939 222.046 272.133 422.938 472.973 635.777> 640.012 53.3291<268.508 426.563> 746.671 53.3291<279.277 415.8>
VStem: 80.0762 53.5234<246.646 508.016> 196 26.7871<253.401 432.094> 213.858 53.4707<681.05 734.754> 427.742 53.5752<681.05 734.754> 561.472 53.5234<246.646 508.016>
LayerCount: 2
Fore
SplineSet
320.799804688 800 m 2xfb80
 374.271484375 800 l 2
 433.088867188 800 481.237304688 752.002929688 481.317382812 693.340820312 c 2
 481.317382812 657.09375 l 1
 562.592773438 608.830078125 614.995117188 515.219726562 614.995117188 400.028320312 c 0
 614.995117188 273.104492188 632.3046875 240.064453125 666.794921875 205.666992188 c 1
 666.743164062 205.666992188 l 1
 685.005556983 187.452752362 695.000122407 165.468218525 695.000122407 146.851960315 c 0
 695.000122407 124.315860847 680.353528894 106.715820312 647.997070312 106.715820312 c 2
 647.997070312 106.715820312 478.500976562 106.715820312 478.498046875 106.715820312 c 0
 466.081054688 45.9130859375 412.119140625 0.099609375 347.510742188 0.099609375 c 0
 282.90234375 0.099609375 228.9375 45.9130859375 216.521484375 106.715820312 c 1
 47.0224609375 106.715820312 l 2
 14.6533133218 106.715820312 1.02673647957e-005 124.329667754 1.02673647957e-005 146.878476124 c 0
 1.02673647957e-005 165.48909146 9.98183191089 187.461399353 28.2236328125 205.666992188 c 0
 62.712890625 240.064453125 80.076171875 273.104492188 80.076171875 400.028320312 c 0
 80.076171875 515.219726562 132.501953125 608.830078125 213.858398438 657.09375 c 1
 213.858398438 693.340820312 l 2
 213.858398438 752.002929688 261.982421875 800 320.799804688 800 c 2xfb80
320.799804688 746.670898438 m 2
 291.390625 746.670898438 267.329101562 722.671875 267.329101562 693.340820312 c 2
 267.329101562 681.049804688 l 1
 292.459960938 689.049804688 319.462890625 693.340820312 347.53515625 693.340820312 c 0
 347.721679688 693.340820312 347.91015625 693.283203125 348.096679688 693.283203125 c 0
 375.850585938 693.283203125 402.609375 688.99609375 427.7421875 681.049804688 c 1
 427.7421875 693.340820312 l 2
 427.7421875 722.671875 403.6796875 746.670898438 374.271484375 746.670898438 c 2
 320.799804688 746.670898438 l 2
347.53515625 640.01171875 m 0
 225.30078125 640.01171875 133.599609375 541.618164062 133.599609375 400.028320312 c 0
 133.599609375 260.305664062 111.721679688 213.349609375 65.9775390625 167.752929688 c 0
 63.0361328125 165.086914062 60.8974609375 162.4453125 59.2939453125 160.045898438 c 1
 635.77734375 160.045898438 l 1
 634.173828125 162.4453125 632.03515625 165.086914062 629.09375 167.752929688 c 0
 583.375976562 213.349609375 561.471679688 260.305664062 561.471679688 400.028320312 c 0
 561.471679688 541.618164062 469.76953125 640.01171875 347.53515625 640.01171875 c 0
272.1328125 106.715820312 m 1
 283.124023438 75.7119140625 312.727539062 53.48046875 347.53515625 53.38671875 c 0
 382.34375 53.48046875 411.947265625 75.7119140625 422.938476562 106.715820312 c 1
 272.1328125 106.715820312 l 1
280.697265625 533.352539062 m 1
 288.073242188 533.3515625 294.064453125 527.375976562 294.064453125 520.017578125 c 0
 294.064453125 516.33984375 292.567382812 513.006835938 290.1484375 510.59375 c 0
 233.950195312 454.517578125 222.787109375 416.083007812 222.787109375 334.356445312 c 0
 222.787109375 291.958984375 221.200195312 273.232421875 213.178710938 249.153320312 c 0
 211.389648438 243.859375 206.368164062 240.047851562 200.458984375 240.047851562 c 0
 198.993164062 240.047851562 197.58203125 240.282226562 196.260742188 240.716796875 c 2
 196.260742188 240.716796875 196.21484375 240.715820312 196.208984375 240.716796875 c 0
 190.924804688 242.487304688 187.120117188 247.46875 187.120117188 253.33203125 c 0
 187.120117188 254.801757812 187.359375 256.215820312 187.801757812 257.5390625 c 0
 194.672851562 278.0703125 196 294.733398438 196 334.303710938 c 0xfd80
 196 422.484375 209.138671875 467.50390625 271.245117188 529.446289062 c 0
 273.661132812 531.860351562 277.001953125 533.352539062 280.6875 533.352539062 c 0
 280.690429688 533.352539062 280.693359375 533.352539062 280.697265625 533.352539062 c 1
EndSplineSet
Validated: 5
EndChar

StartChar: uF6977
Encoding: 24 1010039 24
Width: 695
Flags: W
HStem: 0.0996094 21G<315.207 379.815>
VStem: 80.0762 115.924<253.401 457.391>
LayerCount: 2
Fore
SplineSet
320.799804688 800 m 2
 374.271484375 800 l 2
 433.088867188 800 481.237304688 752.002929688 481.317382812 693.340820312 c 2
 481.317382812 657.09375 l 1
 562.592773438 608.830078125 614.995117188 515.219726562 614.995117188 400.028320312 c 0
 614.995117188 273.104492188 632.3046875 240.064453125 666.794921875 205.666992188 c 1
 666.743164062 205.666992188 l 1
 685.005556983 187.452752362 695.000122407 165.468218525 695.000122407 146.851960315 c 0
 695.000122407 124.315860847 680.353528894 106.715820312 647.997070312 106.715820312 c 2
 647.997070312 106.715820312 478.500976562 106.715820312 478.498046875 106.715820312 c 0
 466.081054688 45.9130859375 412.119140625 0.099609375 347.510742188 0.099609375 c 0
 282.90234375 0.099609375 228.9375 45.9130859375 216.521484375 106.715820312 c 1
 47.0224609375 106.715820312 l 2
 14.6533133218 106.715820312 1.02673647957e-005 124.329667754 1.02673647957e-005 146.878476124 c 0
 1.02673647957e-005 165.48909146 9.98183191089 187.461399353 28.2236328125 205.666992188 c 0
 62.712890625 240.064453125 80.076171875 273.104492188 80.076171875 400.028320312 c 0
 80.076171875 515.219726562 132.501953125 608.830078125 213.858398438 657.09375 c 1
 213.858398438 693.340820312 l 2
 213.858398438 752.002929688 261.982421875 800 320.799804688 800 c 2
280.697265625 533.352539062 m 5
 280.693359375 533.352539062 280.690429688 533.352539062 280.6875 533.352539062 c 4
 277.001953125 533.352539062 273.661132812 531.860351562 271.245117188 529.446289062 c 4
 209.138671875 467.50390625 196 422.484375 196 334.303710938 c 4
 196 294.733398438 194.672851562 278.0703125 187.801757812 257.5390625 c 4
 187.359375 256.215820312 187.120117188 254.801757812 187.120117188 253.33203125 c 4
 187.120117188 247.46875 190.924804688 242.487304688 196.208984375 240.716796875 c 4
 196.21484375 240.715820312 196.260742188 240.716796875 196.260742188 240.716796875 c 6
 197.58203125 240.282226562 198.993164062 240.047851562 200.458984375 240.047851562 c 4
 206.368164062 240.047851562 211.389648438 243.859375 213.178710938 249.153320312 c 4
 221.200195312 273.232421875 222.787109375 291.958984375 222.787109375 334.356445312 c 4
 222.787109375 416.083007812 233.950195312 454.517578125 290.1484375 510.59375 c 4
 292.567382812 513.006835938 294.064453125 516.33984375 294.064453125 520.017578125 c 4
 294.064453125 527.375976562 288.073242188 533.3515625 280.697265625 533.352539062 c 5
EndSplineSet
Validated: 5
EndChar

StartChar: uF6978
Encoding: 25 1010040 25
Width: 800
Flags: W
HStem: 0.00173611 39.9983<56.7058 699.806 700 743.294> 760 40<56.7058 100 100.194 743.294>
VStem: 0.00173611 39.9983<56.7058 100 100.194 743.294> 760 40<56.7058 699.806 700 743.294>
LayerCount: 2
Fore
SplineSet
100 800 m 2
 100 800 366.668402778 799.998263889 544.446180556 799.998263889 c 0
 633.335069444 799.998263889 700.001302083 799.998697917 700 800 c 1
 755.13671875 799.8828125 799.8828125 755.13671875 800 700 c 2
 800 700 799.998263889 433.331597222 799.998263889 255.553819444 c 0
 799.998263889 166.664930556 799.998697917 99.9986979167 800 100 c 1
 799.8828125 44.86328125 755.13671875 0.1171875 700 -0 c 2
 700 0 433.331597222 0.00173611111111 255.553819444 0.00173611111111 c 0
 166.664930556 0.00173611111111 99.9986979167 0.00130208333333 100 -0 c 1
 44.86328125 0.1171875 0.1171875 44.86328125 0 100 c 2
 0 100 0.00173611111111 366.668402778 0.00173611111111 544.446180556 c 0
 0.00173611111111 633.335069444 0.00130208333333 700.001302083 0 700 c 1
 0.1171875 755.13671875 44.86328125 799.8828125 100 800 c 2
100 760 m 2
 66.400390625 760 40 733.599609375 40 700 c 2
 40 100 l 2
 40 66.400390625 66.400390625 40 100 40 c 2
 700 40 l 2
 733.599609375 40 760 66.400390625 760 100 c 2
 760 700 l 2
 760 733.599609375 733.599609375 760 700 760 c 2
 100 760 l 2
EndSplineSet
Validated: 33
EndChar

StartChar: uF6979
Encoding: 26 1010041 26
Width: 800
Flags: W
HStem: 0.00173611 39.9983<56.7058 699.806 700 743.294> 120 560<146.155 653.845> 760 40<56.7058 100 100.194 743.294>
VStem: 0.00173611 39.9983<56.7058 100 100.194 743.294> 120 560<146.155 653.845> 760 40<56.7058 699.806 700 743.294>
LayerCount: 2
Fore
SplineSet
100 800 m 2
 100 800 366.668402778 799.998263889 544.446180556 799.998263889 c 0
 633.335069444 799.998263889 700.001302083 799.998697917 700 800 c 1
 755.13671875 799.8828125 799.8828125 755.13671875 800 700 c 2
 800 700 799.998263889 433.331597222 799.998263889 255.553819444 c 0
 799.998263889 166.664930556 799.998697917 99.9986979167 800 100 c 1
 799.8828125 44.86328125 755.13671875 0.1171875 700 -0 c 2
 700 0 433.331597222 0.00173611111111 255.553819444 0.00173611111111 c 0
 166.664930556 0.00173611111111 99.9986979167 0.00130208333333 100 -0 c 1
 44.86328125 0.1171875 0.1171875 44.86328125 0 100 c 2
 0 100 0.00173611111111 366.668402778 0.00173611111111 544.446180556 c 0
 0.00173611111111 633.335069444 0.00130208333333 700.001302083 0 700 c 1
 0.1171875 755.13671875 44.86328125 799.8828125 100 800 c 2
100 760 m 2
 66.400390625 760 40 733.599609375 40 700 c 2
 40 100 l 2
 40 66.400390625 66.400390625 40 100 40 c 2
 700 40 l 2
 733.599609375 40 760 66.400390625 760 100 c 2
 760 700 l 2
 760 733.599609375 733.599609375 760 700 760 c 2
 100 760 l 2
200 680 m 2
 600 680 l 2
 644.3203125 680 680 644.3203125 680 600 c 2
 680 200 l 2
 680 155.6796875 644.3203125 120 600 120 c 2
 200 120 l 2
 155.6796875 120 120 155.6796875 120 200 c 2
 120 600 l 2
 120 644.3203125 155.6796875 680 200 680 c 2
EndSplineSet
Validated: 33
EndChar

StartChar: uF697A
Encoding: 27 1010042 27
Width: 703
Flags: W
HStem: 0 78.75<314.042 389.277> 292 79<298.02 405.68> 527 78<298.02 405.68> 722 78<246.48 457.396>
VStem: -0 78<343.356 554.396> 195 78<395.944 501.995> 430 78<395.258 502.68> 625 78<343.356 554.396>
LayerCount: 2
Fore
SplineSet
379 90 m 2
 545 255 l 2
 594 304 625 374 625 449 c 0
 625 600 503 722 352 722 c 0
 201 722 78 600 78 449 c 0
 78 374 109 304 158 255 c 2
 324 90 l 2
 331.5 82.5 341.5 78.75 351.5 78.75 c 0
 361.5 78.75 371.5 82.5 379 90 c 2
703 449 m 0
 703 352 664 264 600 200 c 2
 434 34 l 0
 413 13 384 0 352 0 c 0
 320 0 290 13 269 34 c 2
 103 200 l 1
 39 264 0 352 -0 449 c 0
 0 643 158 800 352 800 c 0
 546 800 703 643 703 449 c 0
430 449 m 0
 430 492 395 527 352 527 c 0
 309 527 273 492 273 449 c 0
 273 406 309 371 352 371 c 0
 395 371 430 406 430 449 c 0
508 449 m 0
 508 363 438 292 352 292 c 0
 266 292 195 363 195 449 c 0
 195 535 266 605 352 605 c 0
 438 605 508 535 508 449 c 0
EndSplineSet
Validated: 1
EndChar

StartChar: uF697B
Encoding: 28 1010043 28
Width: 703
Flags: W
HStem: -0.000244141 292.195<283.503 419.497> 604.69 195.31<272.035 430.965>
VStem: 0.000222288 195.421<365.44 531.359> 507.579 195.421<365.44 531.359>
LayerCount: 2
Fore
SplineSet
351.5 800 m 0
 506.267578125 800 625.485351562 704.838867188 675.928710938 582.946289062 c 0
 693.620329606 540.195825227 702.999777712 493.790610617 702.999777712 446.825889136 c 0
 702.999777712 359.882099019 670.854963553 271.020792627 599.793945312 199.879882812 c 2
 434.264648438 34.0947265625 l 2
 411.58203125 11.3647460938 381.541015625 -0.000244140625 351.5 -0.000244140625 c 0
 321.458984375 -0.000244140625 291.41796875 11.3647460938 268.735351562 34.0947265625 c 2
 103.206054688 199.879882812 l 2
 32.1450364469 271.020792626 0.000222288381451 359.882099019 0.000222288381451 446.825889135 c 0
 0.000222288381451 493.790610617 9.3796703941 540.195825227 27.0712890625 582.946289062 c 0
 77.5146484375 704.838867188 196.732421875 800 351.5 800 c 0
457.889648438 565.551757812 m 0
 427.896484375 592.241210938 389.435546875 604.690429688 351.5 604.690429688 c 0
 313.564453125 604.690429688 275.103515625 592.241210938 245.110351562 565.551757812 c 0
 215.116210938 538.861328125 195.420898438 497.26953125 195.420898438 448.442382812 c 0
 195.420898438 399.614257812 215.116210938 358.022460938 245.110351562 331.33203125 c 0
 275.103515625 304.642578125 313.564453125 292.194335938 351.5 292.194335938 c 0
 389.435546875 292.194335938 427.896484375 304.642578125 457.889648438 331.33203125 c 0
 487.883789062 358.022460938 507.579101562 399.614257812 507.579101562 448.442382812 c 0
 507.579101562 497.26953125 487.883789062 538.861328125 457.889648438 565.551757812 c 0
EndSplineSet
Validated: 1
EndChar

StartChar: uF697C
Encoding: 29 1010044 29
Width: 1000
Flags: W
HStem: 0 100.001<109.143 890.857> 320.785 100.023<449.33 550.67> 699.999 100.001<109.143 890.857>
VStem: 0 100.002<109.147 516.12 629.883 690.857> 899.998 100.002<109.147 516.12 629.883 690.857>
LayerCount: 2
Fore
SplineSet
149.998046875 800 m 2
 850.001953125 800 l 2
 932.251953125 800 1000 732.251953125 1000 650.001953125 c 2
 1000 150.001953125 l 2
 1000 67.751953125 932.251953125 0 850.001953125 0 c 2
 149.998046875 0 l 2
 67.748046875 0 0 67.751953125 0 150.001953125 c 2
 0 650.001953125 l 2
 0 732.251953125 67.748046875 800 149.998046875 800 c 2
149.998046875 699.999023438 m 2
 121.791992188 699.999023438 100.001953125 678.205078125 100.001953125 649.998046875 c 2
 100.001953125 629.8828125 l 1
 475.659179688 426.96484375 l 2
 483.254394531 422.860839844 491.627197266 420.808837891 500 420.808837891 c 0
 508.372802734 420.808837891 516.745605469 422.860839844 524.340820312 426.96484375 c 2
 899.998046875 629.8828125 l 1
 899.998046875 650.001953125 l 2
 899.998046875 678.208984375 878.208007812 699.999023438 850.001953125 699.999023438 c 2
 149.998046875 699.999023438 l 2
100.001953125 516.120117188 m 1
 100.001953125 150.001953125 l 2
 100.001953125 121.794921875 121.791992188 100.000976562 149.998046875 100.000976562 c 2
 850.001953125 100.000976562 l 2
 878.208007812 100.000976562 899.998046875 121.794921875 899.998046875 150.001953125 c 2
 899.998046875 516.120117188 l 1
 571.823242188 338.935546875 l 2
 549.411621094 326.835449219 524.705810547 320.78540039 500 320.78540039 c 0
 475.294189453 320.78540039 450.588378906 326.835449219 428.176757812 338.935546875 c 2
 100.001953125 516.120117188 l 1
EndSplineSet
Validated: 1
EndChar

StartChar: uF697D
Encoding: 30 1010045 30
Width: 745
Flags: W
HStem: 0 137.279<336.976 392.776> 109.5 27.7787<609.977 618.961>
LayerCount: 2
Fore
SplineSet
704.322265625 226.497070312 m 2x00
 703.226579058 218.275816829 696.59389423 213.979544756 689.960507009 213.979544756 c 0
 684.012734402 213.979544756 678.064397096 217.433604057 676.106445312 224.609375 c 2
 676.106445312 224.609375 609.493160585 468.851576968 609.493160585 468.928693167 c 0
 609.493160585 468.928703339 609.493161744 468.928709263 609.493164062 468.928710938 c 0
 609.162109375 470.139648438 608.96875 471.400390625 608.96875 472.71484375 c 0
 608.96875 478.108398438 611.938476562 482.813476562 616.330078125 485.284179688 c 2
 723.497070312 545.58203125 l 2
 725.802311774 546.879299692 728.216718148 547.467044503 730.560468009 547.467044503 c 0
 738.150992064 547.467044503 745.000422273 541.302374885 745.000422273 533.109728461 c 0
 745.000422273 532.457698478 744.957037117 531.792823034 744.8671875 531.1171875 c 2
 704.322265625 226.497070312 l 2x00
290.263671875 8.0478515625 m 2
 60.5927734375 182.5859375 l 2
 56.5574407367 185.653274816 54.8199138034 189.77396651 54.8199138034 193.827580537 c 0
 54.8199138034 201.299010375 60.7226612488 208.542563151 69.0199249819 208.542563151 c 0
 70.3768804135 208.542563151 71.7978799521 208.348825957 73.267578125 207.930664062 c 2
 73.267578125 207.930664062 316.946289089 138.626809778 316.946289089 138.609375307 c 0
 316.946289062 138.609375 l 0
 322.987304688 136.887695312 327.418945312 131.340820312 327.418945312 124.750976562 c 0
 327.418945312 124.102539062 327.375976562 123.46484375 327.29296875 122.838867188 c 2
 313.287109375 17.6240234375 l 2
 312.268456811 9.98446943644 305.766824968 5.09162063757 298.938442775 5.09162063757 c 0
 295.967106888 5.09162063757 292.933900459 6.01808698665 290.263671875 8.0478515625 c 2
177.278320312 502.356445312 m 1
 314.4140625 173.774414062 l 2
 315.197926461 171.896070581 315.557246737 170.005324574 315.557246737 168.175551209 c 0
 315.557246737 160.433022607 309.123665955 153.782200876 301.198018563 153.782200876 c 0
 299.884568638 153.782200876 298.530141186 153.964856417 297.157226562 154.35546875 c 2
 14.3642578125 234.806640625 l 2
 7.87621742112 236.653080891 3.88406273321 242.5267232 3.88406273321 248.698157329 c 0
 3.88406273321 251.153489675 4.51597347106 253.655958933 5.8740234375 255.970703125 c 2
 151.533203125 504.099609375 l 2
 154.345573263 508.89264402 159.153421625 511.220989938 163.944519859 511.220989938 c 0
 169.403185245 511.220989938 174.840107558 508.198601368 177.279296875 502.35546875 c 1
 177.278320312 502.356445312 l 1
156.116210938 557.299804688 m 2
 65.6083984375 646.319335938 l 2
 62.6797830661 649.200030637 61.2978540613 652.899376436 61.2978540613 656.558737584 c 0
 61.2978540613 662.07187239 64.4345499188 667.494250225 70.14453125 669.889648438 c 2
 352.6640625 788.469726562 l 2
 354.648499995 789.302675224 356.596418548 789.679014817 358.4515692 789.679014817 c 0
 366.476576183 789.679014817 372.765661181 782.636749522 372.765661181 775.049761602 c 0
 372.765661181 771.754723208 371.579429174 768.35694055 368.833984375 765.388671875 c 2
 176.82421875 557.790039062 l 2
 173.974850426 554.711231933 170.105108753 553.159873934 166.229050348 553.159873934 c 0
 162.582156153 553.159873934 158.929670074 554.533212866 156.116210938 557.299804688 c 2
566.940429688 481.754882812 m 2
 574.586866919 480.736938157 579.47140603 474.233243816 579.47140603 467.410651961 c 0
 579.47140603 464.395755061 578.517578752 461.318585522 576.426757812 458.625 c 2
 350.766601562 167.856445312 l 2
 347.831027012 164.075851607 343.602125571 162.273804435 339.404951318 162.273804435 c 0
 333.910737736 162.273804435 328.470890315 165.361704465 326.057617188 171.141601562 c 2
 184.303710938 510.790039062 l 2
 183.528445567 512.648731159 183.171047517 514.532869791 183.171047517 516.363621805 c 0
 183.171047517 524.032968274 189.443102448 530.765421547 197.541705888 530.765421547 c 0
 198.188143866 530.765421547 198.846219478 530.722526533 199.513671875 530.633789062 c 2
 383.217773438 506.194335938 l 1
 566.940429688 481.754882812 l 2
342.65234375 1.0791015625 m 2
 340.832818981 0.340997363118 338.992103808 0 337.203182016 0 c 0x80
 329.525438893 0 322.801718479 6.27778353712 322.801718479 14.3671931518 c 0
 322.801718479 15.0139235269 322.844694134 15.6722343942 322.93359375 16.33984375 c 2
 322.93359375 16.33984375 336.928711755 121.540955416 336.928711755 121.554687895 c 0
 336.928710938 121.5546875 l 1
 337.864257812 128.547851562 343.8203125 133.977539062 351.045898438 134.0703125 c 2
 604.376953125 137.27734375 l 2
 604.449484606 137.278259338 604.521777855 137.278715333 604.593832144 137.278715333 c 0
 613.705510356 137.278715333 618.995984432 129.98688563 618.995984432 122.68218164 c 0
 618.995984432 117.352619357 616.179726479 112.016203753 609.9765625 109.5 c 2x40
 342.65234375 1.0791015625 l 2
728.232421875 582.342773438 m 2
 731.972030427 579.429644891 733.791483778 575.198219356 733.791483778 570.986651183 c 0
 733.791483778 566.046698872 731.288265231 561.134066481 726.444335938 558.408203125 c 2
 615.80078125 496.1484375 l 2
 613.561407859 494.889136691 611.133337932 494.292608147 608.740105654 494.292608147 c 0
 603.550115849 494.292608147 598.523963103 497.09800649 595.94140625 502.033203125 c 2
 464.918945312 752.607421875 l 2
 463.713369268 754.911775652 463.177022873 757.2190967 463.177022873 759.418580617 c 0
 463.177022873 767.308538233 470.078675953 773.810858161 477.748149872 773.810858161 c 0
 480.687273481 773.810858161 483.739159527 772.855925194 486.55859375 770.658203125 c 2
 728.232421875 582.342773438 l 2
579.30078125 512.850585938 m 2
 580.448934689 510.655702384 580.971347478 508.379919598 580.971347478 506.170818256 c 0
 580.971347478 498.563969981 574.777050414 491.747769804 566.607215955 491.747769804 c 0
 565.955722607 491.747769804 565.291666684 491.791114483 564.6171875 491.880859375 c 2
 384.513671875 515.840820312 l 1
 204.3984375 539.80078125 l 2
 196.677998896 540.827265668 191.866535864 547.371475861 191.866535864 554.162315702 c 0
 191.866535864 557.559802583 193.070866556 561.019021966 195.717773438 563.879882812 c 2
 409.826171875 795.369140625 l 2
 412.721812321 798.500375591 416.570702168 800.000455211 420.388741665 800.000455211 c 0
 425.496650732 800.000455211 430.549343718 797.315606667 433.190429688 792.259765625 c 2
 579.30078125 512.850585938 l 2
591.392578125 454.203125 m 0
 591.706807173 454.223448748 592.021357032 454.233555695 592.335672478 454.233555695 c 0
 598.440113589 454.233555695 604.456136189 450.4213144 606.31640625 443.6015625 c 2
 681.9921875 166.02734375 l 2
 682.341754293 164.744589197 682.50729091 163.46402802 682.50729091 162.210201542 c 0
 682.50729091 154.570583277 676.361715993 147.92349518 668.25390625 147.8203125 c 2
 374.26171875 144.09765625 l 2
 374.195887438 144.096825504 374.130209802 144.096411618 374.064687325 144.096411618 c 0
 365.534335226 144.096411618 359.633823038 151.111510303 359.633823038 158.57765012 c 0
 359.633823038 161.570771437 360.582123833 164.636381828 362.689453125 167.3515625 c 2
 581.005859375 448.646484375 l 1
 581.005859375 448.6484375 l 2
 583.740234375 452.170898438 587.54296875 453.954101562 591.392578125 454.203125 c 0
26.880859375 310.975585938 m 2
 23.9562585176 305.995375701 19.2962090146 303.810018189 14.6716094517 303.810018189 c 0
 7.29027820087 303.810018189 0 309.377305296 0 318.033590306 c 0
 0 318.727574343 0.0461194808875 319.441412631 0.1435546875 320.173828125 c 2
 40.6904296875 624.793945312 l 2
 41.7220889347 632.54198231 48.2827304916 637.326542185 55.0653019535 637.326542185 c 0
 58.6002196939 637.326542185 62.1954191625 636.026935726 65.099609375 633.169921875 c 2
 65.099609375 633.169921875 152.727269447 546.955075728 152.755853556 546.955075728 c 0
 152.755856307 546.955075728 152.755858247 546.955076527 152.755859375 546.955078125 c 1
 155.416992188 544.33984375 157.055664062 540.68359375 157.055664062 536.661132812 c 0
 157.055664062 534.006835938 156.336914062 531.518554688 155.08203125 529.380859375 c 2
 26.880859375 310.975585938 l 2
EndSplineSet
Validated: 1
EndChar

StartChar: uF697E
Encoding: 31 1010046 31
Width: 562
Flags: W
HStem: 0 21G<3.14844 4.00879> 190.659 38.1543<275.046 322.324> 217.907 27.7656<366.407 399.97> 237.243 38.8704<96.4903 100.341 268.458 311.262> 246.617 22.8184<209.272 256.325> 276.109 66.5065<245.142 245.171 261.278 268.309 268.312 312.517> 283.312 52.665<411.525 441.287> 368.945 16.9307<423.458 428.936>
VStem: 0 6.39844<0.159193 2.05762> 83.1191 6.54883<8.48133 10.7822> 179.907 19.7441<9.9218 132.464> 189.661 6.67188<6.74422 9.83691> 196.215 48.6079<276.173 330.457> 208.706 51.7827<243.497 269.258> 252.729 65.2331<276.231 333.903> 268.164 49.3212<236.047 269.201> 382.035 6.60254<43.2774 57.6298> 497.518 13.3587<638.228 641.693>
LayerCount: 2
Fore
SplineSet
308.138671875 799.95703125 m 1x81c0c0
 308.137695312 799.95703125 l 1
 308.428340498 799.985390876 308.71990752 799.999489565 309.011254867 799.999489565 c 0
 312.191164043 799.999489565 315.344904242 798.319966286 316.98828125 795.171875 c 2
 407.838867188 621.31640625 l 2
 408.554575574 619.94743244 408.880272607 618.527646982 408.880272607 617.14961756 c 0
 408.880272607 612.418120065 405.040601274 608.178888207 399.964581618 608.178888207 c 0
 399.559661048 608.178888207 399.146873029 608.205864375 398.727539062 608.26171875 c 2
 286.7265625 623.171875 l 1
 174.725585938 638.080078125 l 2
 169.923979632 638.719424212 166.929795995 642.787838284 166.929795995 647.011237534 c 0
 166.929795995 649.12270757 167.678179146 651.272915477 169.323242188 653.052734375 c 2
 302.443359375 797.09375 l 2
 304.022460938 798.801757812 306.060546875 799.75390625 308.138671875 799.95703125 c 1x81c0c0
270.165039062 793.544921875 m 0
 270.280586111 793.549578799 270.395599555 793.551882886 270.510045241 793.551882886 c 0
 275.500132224 793.551882886 279.410822314 789.171458637 279.410822314 784.451798357 c 0
 279.410822314 782.401965264 278.673140762 780.288141377 276.965820312 778.44140625 c 2
 157.578125 649.27734375 l 2
 155.808859247 647.364406786 153.404682932 646.402156008 150.995932795 646.402156008 c 0
 148.722071982 646.402156008 146.444135269 647.259652833 144.692382812 648.984375 c 2
 88.3984375 704.352539062 l 2
 86.5796875165 706.143272358 85.7219302962 708.444271414 85.7219302962 710.721503895 c 0
 85.7219302962 714.159362003 87.6768347628 717.543053987 91.2314453125 719.03515625 c 2
 266.911133399 792.828125145 l 0
 266.911132812 792.828125 l 1
 267.915039062 793.249023438 269.01953125 793.502929688 270.165039062 793.544921875 c 0
344.223632812 783.681640625 m 0
 344.374943205 783.689825654 344.526958042 783.693968784 344.679537909 783.693968784 c 0
 346.511240849 783.693968784 348.424374264 783.096872743 350.177734375 781.727539062 c 2
 500.446289062 664.54296875 l 2
 502.773110565 662.728821487 503.905812313 660.097263424 503.905812313 657.479058927 c 0
 503.905812313 654.41178568 502.351231243 651.362839587 499.340820312 649.66796875 c 2
 430.55078125 610.930664062 l 2
 429.1543096 610.145129445 427.638636037 609.772645593 426.144615315 609.772645593 c 0
 422.917278581 609.772645593 419.790981122 611.510777655 418.185546875 614.578125 c 2
 336.708007812 770.498046875 l 2
 335.958322363 771.932322708 335.624787211 773.368504125 335.624787211 774.737572124 c 0
 335.624787211 779.489093731 339.642297434 783.432218262 344.223632812 783.681640625 c 0
81.240234375 698.755859375 m 1
 81.2392578125 698.754882812 l 1
 81.4438387305 698.768988963 81.6489119064 698.776103625 81.8541334305 698.776103625 c 0
 84.0499615527 698.776103625 86.2627734023 697.961577272 88.0712890625 696.181640625 c 2
 142.609375 642.538085938 l 2
 144.366915843 640.809242029 145.279070964 638.495617387 145.279070964 636.155378912 c 0
 145.279070964 634.593316724 144.872679002 633.01939729 144.040039062 631.599609375 c 2
 64.3193359375 495.700195312 l 2
 62.5010029275 492.602148629 59.604451457 491.242875514 56.729624789 491.242875514 c 0
 52.138419542 491.242875514 47.602624011 494.70973958 47.602624011 500.09765303 c 0
 47.602624011 500.529583999 47.6317741704 500.97386096 47.6923828125 501.4296875 c 2
 72.91015625 690.973632812 l 2
 73.51953125 695.557617188 77.25 698.478515625 81.240234375 698.755859375 c 1
501.2265625 642.83203125 m 0
 501.456414494 642.850268824 501.685582065 642.859241607 501.913639825 642.859241607 c 0
 506.632554724 642.859241607 510.876305073 639.017556837 510.876305073 633.921138218 c 0
 510.876305073 633.513601626 510.849168634 633.098041705 510.79296875 632.67578125 c 2
 485.575195312 443.127929688 l 2
 484.894106285 438.013326901 480.773194991 435.340930078 476.651017876 435.340930078 c 0
 472.953628951 435.340930078 469.255221648 437.490927421 468.037109375 441.95703125 c 2
 468.037109375 441.95703125 426.614255724 593.924465139 426.614255724 593.97166899 c 0
 426.614255724 593.971675109 426.61425642 593.971678675 426.614257812 593.971679688 c 0
 426.41015625 594.723632812 426.290039062 595.505859375 426.290039062 596.321289062 c 0
 426.290039062 599.684570312 428.140625 602.618164062 430.877929688 604.16015625 c 2
 430.877929688 604.16015625 497.517581998 641.688771721 497.517581998 641.69335964 c 0
 497.517578125 641.693359375 l 1
 498.624023438 642.3203125 499.893554688 642.724609375 501.2265625 642.83203125 c 0
170.397460938 632.447265625 m 0
 170.454101562 632.448242188 170.499023438 632.44921875 170.556640625 632.44921875 c 0
 170.932617188 632.44921875 171.302734375 632.426757812 171.666992188 632.3828125 c 2
 285.913085938 617.180664062 l 1
 400.16015625 601.947265625 l 2
 404.912579993 601.314286109 407.944997485 597.273676201 407.944997485 593.031636392 c 0
 407.944997485 591.154446747 407.351176128 589.237812211 406.049804688 587.559570312 c 2
 265.740234375 406.638671875 l 2
 263.915484688 404.287674016 261.288663657 403.167409261 258.681275702 403.167409261 c 0
 255.264670787 403.167409261 251.881433071 405.090938913 250.379882812 408.689453125 c 2
 162.23046875 620.012695312 l 2
 161.746465011 621.173774285 161.523283409 622.350923042 161.523283409 623.494482817 c 0
 161.523283409 628.250772438 165.384082783 632.426009154 170.397460938 632.447265625 c 0
148.987304688 620.2734375 m 1
 148.986328125 620.2734375 l 1
 149.176696549 620.285325793 149.367313349 620.291258569 149.557854743 620.291258569 c 0
 152.951621803 620.291258569 156.321466989 618.409155632 157.837890625 614.7734375 c 2
 243.125 410.318359375 l 2
 243.611768646 409.15060797 243.834904958 407.97529652 243.834904958 406.837910772 c 0
 243.834904958 402.020199223 239.831437779 397.882943037 234.902098084 397.882943037 c 0
 234.084431769 397.882943037 233.241289766 397.996781004 232.38671875 398.240234375 c 2
 56.5419921875 448.3046875 l 2
 52.5091487037 449.452738528 50.0308306631 453.095620624 50.0308306631 456.928673012 c 0
 50.0308306631 458.455875243 50.4242544622 460.013266303 51.26953125 461.455078125 c 2
 141.828125 615.87890625 l 2
 143.46484375 618.669921875 146.201171875 620.098632812 148.987304688 620.2734375 c 1
415.35546875 584.826171875 m 2
 415.357421875 584.826171875 l 2
 415.550815658 584.83862598 415.744397731 584.844818293 415.937833726 584.844818293 c 0
 419.73354949 584.844818293 423.473018244 582.460492042 424.629882812 578.216796875 c 1
 424.661132812 578.216796875 l 1
 471.713867188 405.499023438 l 2
 471.930744718 404.702798583 472.033432853 403.907925996 472.033432853 403.129569519 c 0
 472.033432853 398.373836767 468.199909966 394.234678497 463.15625 394.170898438 c 2
 280.34765625 391.861328125 l 2
 280.306256033 391.860800322 280.264953685 391.860537375 280.223750159 391.860537375 c 0
 274.921362342 391.860537375 271.255512572 396.215074115 271.255512572 400.854702083 c 0
 271.255512572 402.716349977 271.845718319 404.623897864 273.157226562 406.314453125 c 2
 408.913085938 581.375 l 2
 410.61328125 583.56640625 412.9609375 584.669921875 415.35546875 584.826171875 c 2
91.7158203125 432.418945312 m 0
 91.7475585938 432.419921875 91.7783203125 432.420166016 91.8090820312 432.420166016 c 0
 91.83984375 432.420166016 91.8706054688 432.419921875 91.90234375 432.419921875 c 0
 92.7431640625 432.419921875 93.5546875 432.294921875 94.3203125 432.061523438 c 2
 94.3203125 432.061523438 242.994140625 388.095703125 242.994140625 388.084960938 c 0
 246.72265625 386.921875 249.432617188 383.450195312 249.432617188 379.33984375 c 0
 249.432617188 378.89453125 249.400390625 378.456054688 249.338867188 378.02734375 c 2
 249.338867188 378.02734375 245.555782949 350.024748822 245.555782949 348.591967432 c 0
 245.555782949 348.554350208 245.558390661 348.535047782 245.563743014 348.535047782 c 0
 245.563974577 348.535047782 245.564211277 348.535083911 245.564453125 348.53515625 c 1
 227.41796875 346.180664062 210.426757812 339.354492188 196.137695312 329.295898438 c 1
 196.137695312 329.295898438 86.6201171875 415.987304688 86.609375 415.982421875 c 0
 84.470703125 417.704101562 83.1123046875 420.348632812 83.1123046875 423.305664062 c 0
 83.1123046875 425.374023438 83.7822265625 427.287109375 84.916015625 428.838867188 c 0
 86.451171875 430.95703125 88.919921875 432.346679688 91.7158203125 432.418945312 c 0
420.041992188 385.87109375 m 2
 420.08203125 385.87109375 420.125 385.875976562 420.165039062 385.875976562 c 0
 425.01171875 385.875976562 428.947265625 381.939453125 428.947265625 377.090820312 c 0
 428.947265625 373.40625 426.674804688 370.249023438 423.458007812 368.9453125 c 2
 325.415039062 329.295898438 l 1
 325.415039062 329.295898438 325.410264757 329.340603299 325.410264757 329.350441262 c 0
 325.410264757 329.351657592 325.410337737 329.352340948 325.410501742 329.352340948 c 0
 325.411000994 329.352340948 325.41234375 329.346008523 325.415039062 329.329101562 c 1
 307.016601562 342.059570312 284.690429688 349.587890625 260.646484375 349.587890625 c 0
 257.983398438 349.587890625 255.340820312 349.49609375 252.721679688 349.31640625 c 1
 252.721679688 349.31640625 256.334962717 376.286739203 256.334962717 376.299802087 c 0
 256.33496208 376.299806834 l 0
 256.334961795 376.299806834 256.334961415 376.29980612 256.334960938 376.299804688 c 1
 256.924804688 380.557617188 260.555664062 383.857421875 264.958007812 383.916992188 c 2
 420.041992188 385.87109375 l 2
261.735351562 345.961914062 m 0
 282.557617188 345.798828125 301.990234375 339.221679688 317.963867188 328.19140625 c 1
 317.963867188 328.19140625 317.962565104 328.134982639 317.962565104 328.124855324 c 0
 317.962565104 328.123856856 317.962577761 328.123308402 317.96260557 328.123308402 c 0
 317.962718792 328.123308402 317.963083187 328.132399868 317.963867188 328.157226562 c 1
 320.903320312 321.64453125 322.537109375 314.326171875 322.537109375 306.720703125 c 0
 322.537109375 295.723632812 319.115234375 285.51953125 313.279296875 277.1171875 c 0
 313.032226562 276.776367188 312.78515625 276.443359375 312.53125 276.109375 c 2
 312.53125 276.109375 292.872395833 276.118489583 279.769386574 276.118489583 c 0
 273.217881944 276.118489583 268.30859375 276.109375 268.30859375 276.109375 c 1
 266.827148438 278.7109375 265.430664062 281.395507812 264.143554688 284.115234375 c 0
 256.868164062 299.51953125 252.729492188 316.721679688 252.729492188 334.876953125 c 0x85c2c0
 252.729492188 338.50390625 252.891601562 342.092773438 253.209960938 345.637695312 c 0
 255.903320312 345.85546875 258.522460938 345.962890625 261.270507812 345.962890625 c 0
 261.42578125 345.962890625 261.580078125 345.962890625 261.735351562 345.961914062 c 0
245.141601562 342.611328125 m 1
 245.141601562 342.611328125 245.168995999 342.615825719 245.170607437 342.615825719 c 0
 245.170656268 342.615825719 245.170681424 342.615821589 245.170681424 342.615813079 c 0
 245.170681424 342.615668403 245.163411458 342.614257812 245.141601562 342.610351562 c 0
 244.887695312 339.444335938 244.823242188 336.255859375 244.823242188 333.024414062 c 0
 244.823242188 315.461914062 248.653320312 298.787109375 255.521484375 283.790039062 c 0
 256.717773438 281.185546875 258.018554688 278.607421875 259.393554688 276.109375 c 1
 214.423828125 276.109375 l 2
 214.010742188 276.319335938 213.588867188 276.532226562 213.188476562 276.758789062 c 0
 202.610217137 282.744414302 196.215320667 294.132166406 196.215320667 306.280228837 c 0x85c8c0
 196.215320667 308.414257349 196.412662848 310.571748524 196.819335938 312.727539062 c 0
 197.720703125 317.579101562 199.53125 322.186523438 202.221679688 326.268554688 c 0
 214.80859375 334.627929688 229.525390625 340.388671875 245.141601562 342.611328125 c 1
425.051757812 335.741210938 m 2
 425.051757812 335.741210938 425.047417535 335.741644965 425.047417535 335.741934317 c 0
 425.047417535 335.742078993 425.048502604 335.7421875 425.051757812 335.7421875 c 0
 425.711914062 335.896484375 426.390625 335.977539062 427.09765625 335.977539062 c 0
 427.8046875 335.977539062 428.4921875 335.896484375 429.153320312 335.7421875 c 0
 431.890625 335.106445312 434.151367188 333.229492188 435.302734375 330.73046875 c 2
 561.686523528 54.0419921141 l 0
 561.686523438 54.0419921875 l 1
 561.891601562 53.6083984375 562 53.1181640625 562 52.607421875 c 0
 562 50.75390625 560.505859375 49.25 558.653320312 49.25 c 0
 557.3515625 49.25 556.221679688 49.9931640625 555.665039062 51.0791015625 c 2
 555.665039062 51.0791015625 431.658203125 280.721679688 431.659179688 280.728515625 c 0
 430.841796875 282.26953125 429.221679688 283.3125 427.358398438 283.3125 c 0
 426.216796875 283.3125 425.166992188 282.918945312 424.336914062 282.258789062 c 2
 366.220703125 236.133789062 l 1
 366.220703125 236.133789062 393.707716818 245.672866224 393.749951513 245.672866224 c 0
 393.749981736 245.672866224 393.749997905 245.672861339 393.75 245.672851562 c 1
 395.046875 246.122070312 396.435546875 246.379882812 397.884765625 246.379882812 c 0
 403.024414062 246.379882812 407.452148438 243.30859375 409.432617188 238.90234375 c 2
 481.573242277 77.7392578334 l 0
 481.573242188 77.7392578125 l 1
 481.765625 77.3173828125 481.875976562 76.8466796875 481.875976562 76.353515625 c 0
 481.875976562 75.380859375 481.458984375 74.505859375 480.79296875 73.8974609375 c 0
 480.534179688 73.6572265625 480.23828125 73.4599609375 479.913085938 73.3115234375 c 0
 479.493164062 73.123046875 479.02734375 73.0126953125 478.537109375 73.0126953125 c 0
 477.288085938 73.0126953125 476.196289062 73.697265625 475.619140625 74.7119140625 c 2
 475.619140625 74.7119140625 394.40625 214.545898438 394.400390625 214.553710938 c 0
 393.239257812 216.5625 391.075195312 217.907226562 388.590820312 217.907226562 c 0xa3c0c0
 387.989257812 217.907226562 387.40625 217.828125 386.850585938 217.678710938 c 2
 330.426757812 202.280273438 l 1
 361.56640625 191.635742188 l 2
 365.853515625 190.157226562 368.969726562 186.416992188 369.606445312 181.936523438 c 2
 369.606445312 181.936523438 388.603515625 47.046875 388.607421875 47.0439453125 c 0
 388.629882812 46.8876953125 388.637695312 46.73046875 388.637695312 46.5673828125 c 0
 388.637695312 44.876953125 387.375976562 43.4794921875 385.744140625 43.2666015625 c 0
 385.588867188 43.2451171875 385.434570312 43.234375 385.2734375 43.234375 c 0
 383.7265625 43.234375 382.422851562 44.283203125 382.03515625 45.7080078125 c 2
 348.844726541 166.833007777 l 0
 348.844726562 166.833007812 l 1
 348.224609375 169.106445312 346.431640625 170.900390625 344.159179688 171.521484375 c 2
 344.159179688 171.521484375 275.16955049 190.65921551 275.046062085 190.65921551 c 0
 275.045964568 190.65921551 275.045909996 190.659203575 275.045898438 190.659179688 c 1
 273.514648438 195.845703125 272.70703125 201.365234375 272.70703125 207.044921875 c 0
 272.70703125 214.78125 274.232421875 222.163085938 276.997070312 228.907226562 c 0
 277.635742188 228.887695312 278.208007812 228.813476562 278.8515625 228.813476562 c 0xc1c0c0
 302.047851562 228.813476562 322.256835938 241.705078125 332.704101562 260.7109375 c 0
 332.880859375 261.014648438 333.111328125 261.27734375 333.387695312 261.491210938 c 2
 421.375977546 333.918944861 l 0
 421.375976562 333.918945312 l 1
 422.42578125 334.784179688 423.684570312 335.419921875 425.051757812 335.741210938 c 2
96.2724609375 276.110351562 m 2
 96.2724609375 276.110351562 96.2758105469 276.1084375 96.2758105469 276.108293945 c 0
 96.2758105469 276.108288352 96.2758054623 276.108285447 96.2757948969 276.108285447 c 0
 96.2756892433 276.108285447 96.2750355114 276.108575994 96.2734375 276.109375 c 1
 97.6806640625 276.067382812 99.0478515625 275.840820312 100.340820312 275.456054688 c 2
 100.340820312 275.456054688 201.382325175 245.703890226 201.472955171 245.703890226 c 0
 201.472995835 245.703890226 201.473016176 245.703896216 201.473016176 245.7039082 c 0
 201.473016176 245.703937295 201.472896288 245.704001724 201.47265625 245.704101562 c 1
 222.126953125 236.1015625 245.233398438 230.412109375 269.350585938 229.8203125 c 1
 266.856445312 222.955078125 265.482421875 215.538085938 265.482421875 207.815429688 c 0
 265.482421875 201.83984375 266.296875 196.053710938 267.821289062 190.561523438 c 1
 267.821289062 190.561523438 201.702148438 125.32421875 201.701171875 125.329101562 c 1
 200.489257812 124.1484375 199.717773438 122.515625 199.651367188 120.708007812 c 2x85e0c0
 199.651367188 120.708007812 196.333007812 10.0029296875 196.333007812 10.0009765625 c 0
 196.2890625 8.1943359375 194.809570312 6.7431640625 192.993164062 6.7431640625 c 0
 191.232421875 6.7431640625 189.788085938 8.1083984375 189.661132812 9.8369140625 c 2x85d0c0
 189.661132812 9.8369140625 179.936523438 126.955078125 179.932617188 126.958007812 c 0
 179.9140625 127.213867188 179.907226562 127.469726562 179.907226562 127.729492188 c 0
 179.907226562 130.151367188 180.758789062 132.375 182.176757812 134.118164062 c 2
 230.369140625 193.850585938 l 1
 230.369140625 193.850585938 145.384765625 146.528320312 145.375 146.521484375 c 0
 144.02734375 145.762695312 142.978515625 144.559570312 142.4140625 143.1015625 c 2
 142.4140625 143.1015625 89.669921875 10.783203125 89.66796875 10.7822265625 c 0
 89.224609375 9.4443359375 87.96484375 8.478515625 86.4794921875 8.478515625 c 0
 84.625 8.478515625 83.119140625 9.9853515625 83.119140625 11.83984375 c 0
 83.119140625 12.208984375 83.1787109375 12.564453125 83.2890625 12.8974609375 c 2
 83.2890625 12.8974609375 120.728515625 157.6171875 120.743164062 157.620117188 c 0
 121.674804688 161.215820312 124.108398438 164.201171875 127.34765625 165.857421875 c 2
 212.89453125 209.670898438 l 1
 119.409179688 236.590820312 l 2
 117.882419613 237.031717582 116.339744079 237.242835419 114.819241256 237.242835419 c 0
 108.22664714 237.242835419 102.050881136 233.273999517 99.396484375 226.857421875 c 2
 99.396484375 226.857421875 6.3994140625 2.060546875 6.3984375 2.0576171875 c 0
 5.89453125 0.8486328125 4.7041015625 0 3.3134765625 0 c 0
 2.9833984375 0 2.6640625 0.048828125 2.36328125 0.1376953125 c 0
 0.921410286327 0.582325125086 0 1.92683335176 0 3.36820620901 c 0
 0 3.6996582029 0.0479628568944 4.03623236479 0.150390625 4.3681640625 c 2
 0.150390625 4.3681640625 80.689453125 264.8125 80.6845703125 264.813476562 c 1
 82.3125 270.16796875 86.6943359375 274.330078125 92.1728515625 275.653320312 c 0
 93.392578125 275.953125 94.6533203125 276.11328125 95.96484375 276.11328125 c 0x91e0c0
 96.0673828125 276.11328125 96.169921875 276.112304688 96.2724609375 276.110351562 c 2
311.26171875 269.630859375 m 1
 311.260742188 269.630859375 l 1
 314.611482169 265.537607999 317.485249912 260.367649516 317.485249912 255.303884832 c 0
 317.485249912 250.937171882 315.348203656 246.649428801 309.537109375 243.19921875 c 0
 301.732421875 235.696289062 289.173828125 234.016601562 277.2890625 233.888671875 c 1
 270.888714632 237.997062639 268.164044579 245.113920824 268.164044579 252.586910428 c 0
 268.164044579 258.404392097 269.815227581 264.437693712 272.668945312 269.435546875 c 1x89c1c0
 311.26171875 269.630859375 l 1
217.80859375 269.435546875 m 1
 261.768554688 269.435546875 l 1
 261.020464685 264.858817387 260.489126204 260.423315428 260.489126204 256.169977349 c 0
 260.489126204 248.130433418 262.387467462 240.741716071 268.30859375 234.280273438 c 1
 247.149414062 235.09375 224.59765625 240.819335938 210.583984375 246.6171875 c 1
 209.297140437 248.831045635 208.706415083 251.330480376 208.706415083 253.864660582 c 0x89c4c0
 208.706415083 260.078859461 212.258480201 266.501984795 217.80859375 269.435546875 c 1
EndSplineSet
Validated: 5
EndChar
